/* XPM */
static char *result[] = {
/* columns rows colors chars-per-pixel */
"32 32 142 2 ",
"   c black",
".  c #010000",
"X  c #000001",
"o  c #010101",
"O  c #020101",
"+  c #010201",
"@  c #010302",
"#  c #020202",
"$  c #030302",
"%  c gray1",
"&  c #040305",
"*  c #050506",
"=  c #050606",
"-  c #070707",
";  c gray4",
":  c #262526",
">  c gray16",
",  c #2A2A2A",
"<  c #2A2B2B",
"1  c gray17",
"2  c #2C2C2B",
"3  c #2B2B2C",
"4  c #787879",
"5  c #7B7A79",
"6  c #7A7B7A",
"7  c #7B7B7A",
"8  c #7B7A7B",
"9  c #7B7B7B",
"0  c #7C7A7B",
"q  c #7C7B7B",
"w  c #7D7B7B",
"e  c #7B7C7A",
"r  c #7A7C7B",
"t  c #7B7C7B",
"y  c #7B7D7B",
"u  c #7C7C7B",
"i  c #7D7C7B",
"p  c #7C7D7B",
"a  c #7B7A7C",
"s  c #7A7B7C",
"d  c #7B7B7C",
"f  c #7A7B7D",
"g  c #7B7B7D",
"h  c #7C7A7C",
"j  c #7C7B7C",
"k  c #7D7B7C",
"l  c #7C7B7D",
"z  c #7A7C7C",
"x  c #7B7C7C",
"c  c #7B7D7C",
"v  c #7B7C7D",
"b  c #7C7C7C",
"n  c #7D7D7C",
"m  c #7C7C7D",
"M  c #7D7D7E",
"N  c #7E7D7E",
"B  c #7C7E7E",
"V  c #7D7F7E",
"C  c #7D7F7F",
"Z  c #7E7E7E",
"A  c #7E7E7F",
"S  c gray50",
"D  c #7F817F",
"F  c #7E7E80",
"G  c #7E8080",
"H  c #7F8080",
"J  c #7F8180",
"K  c #808080",
"L  c #808081",
"P  c #818081",
"I  c #808181",
"U  c #818181",
"Y  c #818382",
"T  c #818383",
"R  c gray51",
"E  c #838382",
"W  c #828283",
"Q  c #838383",
"!  c #838484",
"~  c #868685",
"^  c #868586",
"/  c #858686",
"(  c #868686",
")  c #878686",
"_  c #868786",
"`  c #868687",
"'  c #878687",
"]  c #888787",
"[  c gray81",
"{  c #D1D0CF",
"}  c #D0D0D1",
"|  c #D1D0D1",
" . c #D2D2D0",
".. c #D2D1D2",
"X. c #D2D2D2",
"o. c #D2D2D3",
"O. c #D3D2D3",
"+. c #D3D4D4",
"@. c gray83",
"#. c #D4D5D4",
"$. c #D4D4D5",
"%. c #E3E2E3",
"&. c gray93",
"*. c #EDECEE",
"=. c #EFEFEF",
"-. c #F6F6F6",
";. c gray97",
":. c #F7F8F7",
">. c #F7F7F8",
",. c #F7F8F8",
"<. c #F8F8F8",
"1. c #F8F8F9",
"2. c #F8F9F9",
"3. c #F9F9F9",
"4. c #FAF9F8",
"5. c #FAF8F9",
"6. c #F9FAF9",
"7. c #FAF9FA",
"8. c #F9FAFA",
"9. c #FAFBFA",
"0. c #FCFCFB",
"q. c #F8FBFC",
"w. c #FAFCFC",
"e. c #FAFCFD",
"r. c gray99",
"t. c #FCFDFC",
"y. c #FDFDFC",
"u. c #FCFCFD",
"i. c #FDFDFD",
"p. c #FEFDFD",
"a. c #FDFEFC",
"s. c #FEFEFD",
"d. c #FEFDFE",
"f. c #FDFEFF",
"g. c #FEFEFE",
"h. c #FFFEFE",
"j. c #FEFFFE",
"k. c #FFFFFE",
"l. c #FEFEFF",
"z. c #FFFEFF",
"x. c #FEFFFF",
"c. c white",
/* pixels */
"t t d u t 9 b z x q j b 9 j x x t x b q z d t j d u t b j b d 9 ",
"9 j d d u x b u g u 9 u x m b x d d x 9 u 9 j b b b t q u d 9 d ",
"b q q d j q x b j u b j x u l d j d u j l d x m b b u b x d u t ",
"x t q b b d 9 x k x d d t k t g i b b j y u b b x x q b m d j x ",
"j 0 b q j q x x u 9 9 9 x x b s d j j q t u t b u d d b t x j x ",
"j u b u t ! ] I T H H J H Z K G D A F S M n N B V Z C 8 v j x u ",
"d q b q   s.u.x.f.                            q.r.e.u.  t b u b ",
"b x j   h.k.k.c.                                j.k.k.h.  u x q ",
"b q b   c.  [                                     c.  h.  k p t ",
"b 9 6   k.+ o     $.....} X.O.{  ...| o.o.X.#.    +.  c.  4 x t ",
"q j > c.c.z.=                                       j.j.c.  q r ",
"y j , h.    -                                       O   c.  j j ",
"x w 2 z.        c.c.h.x.c.g.        -.c.c.z.k.c.        c.  d u ",
"b b 3 k.c.x.                  X X                   z.z.c.  d j ",
"d j 1 h.                    l.    c.*                   k.  j x ",
"u j < h.    c.j.c.g.x.x.c.  k.    z.. c.h.k.k.l.k.c.    c.  t t ",
"b j : x.c.j.x.c.k.g.j.j.x.  x.z.s.k.X c.c.h.k.k.k.h.c.z.h.  m d ",
"b b ;                       c.g.0.k.&             @ % $   # d b ",
"b q b   k.x.c.              <.*.&.c.              l.x.z.  l 9 t ",
"q q b   j.  s.                                    j.  z.  u 9 d ",
"d x 9   l.  g.                                    g.  x.  d x 9 ",
"b q x   x.c.j.  y.u.g.g.i.i.g.y.p.a.g.t.a.h.r.=.  k.c.c.  x 9 b ",
"x z j   c.  @.                                    d.  c.  j f u ",
"r 8 d   c.  %.                                    c.  c.  9 t 9 ",
"b x b   x.z.z.  k.c.z.c.l.k.x.g.h.z.c.g.c.z.k.z.  g.x.k.  b b 9 ",
"b b x   :.,.:.  1.<.2.4.3.7.5.8.3.9.<.;.<.6.3.w.  <.,.>.  9 h d ",
"x m j W R Y R Q ) ( ^ ^ ( _ ( ^ ` ~ ( / ' ` / E P L U U U q u 9 ",
"x d j 9 d j 9 9 j 9 j 7 t 9 q 9 q 9 x d q u t 9 d d x x t 9 b d ",
"9 t c j d t d u q 5 t t t d d d j x 9 t j 9 b d t 9 t e r x 9 j ",
"q j 9 u t d d q u 9 d q t d 9 x t q d 9 t x d u t d j u t 9 d 9 ",
"j u q q q d u x b t 9 9 t j 9 9 d d t x d q t u d b t x d x 9 x ",
"b 9 9 u 9 t u 9 x t x q x x 9 u a 9 q x x d b d q b j t j u 9 b "
};
