/* XPM */
static char *result[] = {
/* columns rows colors chars-per-pixel */
"32 32 74 1 ",
"  c black",
". c #010000",
"X c #000100",
"o c #010100",
"O c #000001",
"+ c #010001",
"@ c #000101",
"# c #010101",
"$ c #020101",
"% c #020202",
"& c #020302",
"* c gray1",
"= c #040403",
"- c #040404",
"; c #050504",
": c #040505",
"> c #050605",
", c #050706",
"< c #060606",
"1 c #070606",
"2 c #131213",
"3 c gray15",
"4 c #373736",
"5 c #3A3A39",
"6 c gray27",
"7 c #474847",
"8 c #777676",
"9 c #797878",
"0 c #787979",
"q c #797979",
"w c #7A7979",
"e c #797A79",
"r c #7A7A78",
"t c #7A7A79",
"y c #7B7A79",
"u c #7A7B79",
"i c #79797A",
"p c #7A797A",
"a c #7B797A",
"s c #7A797B",
"d c #7B797B",
"f c #797A7A",
"g c #797B7A",
"h c #797A7B",
"j c #797B7B",
"k c gray48",
"l c #7B7A7A",
"z c #7A7B7A",
"x c #7B7B7A",
"c c #7A7A7B",
"v c #7B7A7B",
"b c #7A7B7B",
"n c #7B7B7B",
"m c #7B7C7A",
"M c #7A797C",
"N c #7C7C7C",
"B c #818080",
"V c gray54",
"C c gray55",
"Z c #D2D2D3",
"A c gray87",
"S c #FDFDFD",
"D c #FEFEFD",
"F c #FEFDFE",
"G c #FEFDFF",
"H c #FDFFFF",
"J c #FEFEFE",
"K c #FFFEFE",
"L c #FEFFFE",
"P c #FFFFFE",
"I c #FEFEFF",
"U c #FFFEFF",
"Y c #FEFFFF",
"T c white",
/* pixels */
"lcbnckdkklbklkzvkplkchkkkkhbzkkl",
"zbkkkpczkkvlxksi hbykkzkkkkkckll",
"zkfclkkckkx3 lkq1ppk ctkkcfckzlk",
"vvkpkcfkV f5<   J  #>kc fclcklkk",
"lblpzvzzC,X U-JYKT6&L  ;pcvccklf",
"kkczkvc .I=%T:JTTY8&I  Y 4xbackk",
"zzwklf DLPLYKLYYYTPJPTILT2Olvkvc",
"tzzkB JYPU             TJ%>obkkj",
"klvb9-UTS               TTY-Nzlf",
"uvk  LT                  ZUI  cz",
"kkc .TT                  AYK .pz",
"zka #P                     HO kx",
"pcz  P                     G  cf",
"fkk  L                     T  kk",
"kzk  T                     I #kv",
"kfx  L                     T #zp",
"wkk  T                     L $ll",
"ppq OK                     F @kk",
"kkk  L                     U  fl",
"kkv  Y                     U  fc",
"ckk  U                     L  kz",
"kkt OY                     L  fk",
"kkk  T                     T  hf",
"kcf *J                     L  fk",
"plk  L                     Y  pk",
"xzf  Y    mxcctvvxkzbdl    T  bk",
"Mki  T    cblcktcekkkk0    I  pk",
"tka +UU  kfzkfkkkkpkkwzk 7UL  ik",
"pct      fvlkclkhxccpkkw      pt",
"kkkzlkcvflgkkkzkckkgflkkkkqpklpk",
"zfkfcclzckllpfkkxlpfekkkckppksbk",
"hbczkfkzlczkklffcccxrkkzcxntkpcv"
};
