/* XPM */
static char *result[] = {
/* columns rows colors chars-per-pixel */
"32 32 124 2 ",
"   c black",
".  c #010000",
"X  c #000100",
"o  c #000001",
"O  c #010001",
"+  c #000101",
"@  c #010101",
"#  c #020101",
"$  c #010200",
"%  c #010201",
"&  c #010301",
"*  c #020301",
"=  c #000102",
"-  c #010102",
";  c #020102",
":  c #020202",
">  c #020302",
",  c #030203",
"<  c gray1",
"1  c #030403",
"2  c #040404",
"3  c #050404",
"4  c #040505",
"5  c gray2",
"6  c #060505",
"7  c #060606",
"8  c #161616",
"9  c #191A1A",
"0  c #222222",
"q  c #2A2A2A",
"w  c #2C2C2C",
"e  c #302F2F",
"r  c #3C3A3A",
"t  c #525251",
"y  c #555556",
"u  c #5E5F5F",
"i  c #6D6D6D",
"p  c #706F6F",
"a  c #70706F",
"s  c #727373",
"d  c #727375",
"f  c #747375",
"g  c #757476",
"h  c #767777",
"j  c #787978",
"k  c #797978",
"l  c #797879",
"z  c #787979",
"x  c #797979",
"c  c #7A7979",
"v  c #797A79",
"b  c #7A7A79",
"n  c #7B7A79",
"m  c #7A7B79",
"M  c #7B7B79",
"N  c #78787A",
"B  c #79797A",
"V  c #7A797A",
"C  c #7B797A",
"Z  c #7A797B",
"A  c #7B797B",
"S  c #797A7A",
"D  c #797B7A",
"F  c #787A7B",
"G  c #797A7B",
"H  c gray48",
"J  c #7B7A7A",
"K  c #7A7B7A",
"L  c #7B7B7A",
"P  c #7A7A7B",
"I  c #7B7A7B",
"U  c #7A7B7B",
"Y  c #7B7B7B",
"T  c #7C7A7A",
"R  c #7A7B7E",
"E  c #7C7B7C",
"W  c #7B7C7D",
"Q  c #838383",
"!  c #858584",
"~  c #848585",
"^  c #878888",
"/  c #888888",
"(  c #888988",
")  c #898989",
"_  c #89898A",
"`  c #8A8B8A",
"'  c #8C8C8D",
"]  c #8E8E8F",
"[  c #909093",
"{  c #939092",
"}  c #939192",
"|  c #949495",
" . c #969697",
".. c #A7A6A6",
"X. c #AAAAAA",
"o. c #B4B4B4",
"O. c #B7B7B8",
"+. c #CCCDCD",
"@. c #E2E4E3",
"#. c #F6F5F6",
"$. c #FAFAFB",
"%. c #FBFCFA",
"&. c #FCFCFB",
"*. c #FBFBFC",
"=. c #FBFCFC",
"-. c gray99",
";. c #FCFDFC",
":. c #FCFDFD",
">. c #FDFDFD",
",. c #FEFDFD",
"<. c #FEFEFD",
"1. c #FDFDFE",
"2. c #FEFDFE",
"3. c #FEFDFF",
"4. c #FDFEFE",
"5. c #FDFFFF",
"6. c #FEFEFE",
"7. c #FFFEFE",
"8. c #FEFFFE",
"9. c #FFFFFE",
"0. c #FEFEFF",
"q. c #FFFEFF",
"w. c #FEFFFF",
"e. c white",
/* pixels */
"L K J H H J J U n H K K J H Y j U b K J H H K P Y H J D U I H b ",
"H S H B P H H J Y Y H q w H H .   H V 8 ) H H H H P P H P H U Z ",
"H P H b H K H H F g H   , Y P     H P :  .H z H V J H U V J H P ",
"P L H P H J Z J ! 1 W   + 3 ; 6.2.  4   | E 2 H P H I H P L P H ",
"K H K K S H T H ~ > 7 ;.X.< w.6.9.6.5 0.. 6 # G c P Y H H P K S ",
"H K L P C H P     e.- ;.O.  w.e.0.e.- 9.*   7.  ( P I H H P S P ",
"G H H b P S   w.w.9.w.e.w.0.w.9.8.e.e.8.e.9.9.6.+ o H H K K J J ",
"H K P V Y 1 9.q.e.q.                        q.w.e.&.< H S S H K ",
"A L I Z H & 9.w.<.                            q.6.=.> H P P H S ",
"H K H     e.e.        e.>.    7.q.    9.-.      w.w.w.  P H n H ",
"I K H     w.9.+   w.0.q.e.q.6.e.9.w.q.9.e.e.9.. >.e.e.  I H H H ",
"U S L     w.                                      + q.  c H G H ",
"K K P     e.          e.e.    e.0.    7.          . 9.  H I K H ",
"P P H     0.          0.1.    7.4.    q.      <     6.  U H H S ",
"H v H     w.          0.=.    7.,.    w.      1.    8.  l P H m ",
"S J b @   e.          w.:.    e.:.    9.      6.@   7.  V P P H ",
"H V P ,   8.  R ^ d y 0.>.{ Q e.7.o.] e.[ s   4.9   7.  B H H P ",
"b J J : X q.    0 t i p h / ' _ ' ` ) z a u         e.  k V b S ",
"I H H %   w.          } ..    f +.    @.      #.r   9.  c H J B ",
"b H H   O q.          6.%.    4.8.    e.=     w.e   8.  H H V S ",
"S H H   @ 9.          3.$.    7.<.    w.            e.  H J P S ",
"H H v   % e.          7.>.    8.6.    8.+           0.  B J H H ",
"H V H   $ 9.          6.8.    *.7.    8.            w.  S J H S ",
"b P H   @ w.  -.e.8.e.9.e.e.e.w.9.e.e.w.e.e.0.      q.  H H V H ",
"H T H   X 5.                                        w.  b C U B ",
"H L P     0.          e.:.    q.8.    9.%           q.  S I H V ",
"H H P     e.          e.&.    e.8.    w.            e.  N H b J ",
"J S G   o e.                                        e.  M H H H ",
"H K H   . w.q.    e.6.e.e.9.e.9.8.w.e.e.w.q.e.  4.e.8.  x H H I ",
"H H K                                                   c S M H ",
"J J U V H H S C V V B H K m V S V H c K V V x H S B H V S P V J ",
"H J V P H H J U J H J H K J Z V P P H P L Y H H H P H H H H S H "
};
