/* XPM */
static char *result[] = {
/* columns rows colors chars-per-pixel */
"32 32 230 2 ",
"   c gray47",
".  c #767676",
"X  c #747474",
"o  c #777777",
"O  c #727272",
"+  c #7B7B7B",
"@  c #797979",
"#  c #797A79",
"$  c #797A7A",
"%  c #787978",
"&  c gray48",
"*  c gray51",
"=  c #818181",
"-  c #747575",
";  c #797978",
":  c #777878",
">  c #7E7E7E",
",  c #353535",
"<  c #373637",
"1  c gray21",
"2  c #373737",
"3  c #343434",
"4  c #3F3F3F",
"5  c gray49",
"6  c #787979",
"7  c #7C7C7C",
"8  c gray36",
"9  c #181818",
"0  c black",
"q  c #282828",
"w  c #6F7070",
"e  c #7A7B7B",
"r  c #7C7C7B",
"t  c #6C6C6C",
"y  c #6D6D6D",
"u  c #717171",
"i  c #7C7D7C",
"p  c #4B4B4B",
"a  c gray2",
"s  c #020202",
"d  c #010101",
"f  c gray44",
"g  c gray46",
"h  c #555555",
"j  c #2A2A2A",
"k  c #2D2D2D",
"l  c #272727",
"z  c gray25",
"x  c gray45",
"c  c #7A7B7A",
"v  c #7E7F7F",
"b  c gray27",
"n  c #0A0B0A",
"m  c #1B1B1B",
"M  c #535353",
"N  c #7D7E7E",
"B  c #838383",
"V  c #2F2F2F",
"C  c gray34",
"Z  c white",
"A  c #F9FAFA",
"S  c gray65",
"D  c #7F8080",
"F  c gray50",
"G  c gray1",
"H  c #8A8A8B",
"J  c gray",
"K  c #252525",
"L  c #3E3E3E",
"P  c #565656",
"I  c gray98",
"U  c gray38",
"Y  c gray33",
"T  c #8D8D8D",
"R  c gray26",
"E  c gray77",
"W  c gray80",
"Q  c #F9F9F9",
"!  c #505050",
"~  c #606060",
"^  c #242323",
"/  c #EAEAEA",
"(  c #959595",
")  c #9B9B9B",
"_  c #AAAAAA",
"`  c #C0C0C0",
"'  c gray19",
"]  c gray17",
"[  c #555655",
"{  c gray73",
"}  c gray4",
"|  c #5A5A5A",
" . c #BCBCBC",
".. c #515252",
"X. c #4E4E4E",
"o. c #E1E1E1",
"O. c #6A6A6A",
"+. c gray35",
"@. c gray52",
"#. c #232323",
"$. c #151515",
"%. c #A2A2A2",
"&. c gainsboro",
"*. c #AFAFAF",
"=. c #676767",
"-. c #BBBBBB",
";. c gray76",
":. c #8E8E8E",
">. c #B9B9B9",
",. c gray94",
"<. c #6D6D6C",
"1. c gray12",
"2. c gray59",
"3. c #9D9D9D",
"4. c #090909",
"5. c #040404",
"6. c #CACACA",
"7. c DimGray",
"8. c gray75",
"9. c #F3F3F3",
"0. c #CBCBCC",
"q. c #404141",
"w. c #E4E4E4",
"e. c gray90",
"r. c #0E0E0E",
"t. c gray16",
"y. c gray37",
"u. c #DFDFDF",
"i. c gray70",
"p. c gray5",
"a. c #898989",
"s. c #CDCDCD",
"d. c gray89",
"f. c gray6",
"g. c #070707",
"h. c #101010",
"j. c #545455",
"k. c #D0D0D0",
"l. c #CDCDCE",
"z. c #5F5F5F",
"x. c #515151",
"c. c gray23",
"v. c #828383",
"b. c gray30",
"n. c #B2B2B2",
"m. c gray28",
"M. c #393939",
"N. c #989898",
"B. c #AEAEAE",
"V. c #5D5D5D",
"C. c #585858",
"Z. c gray68",
"A. c #C6C6C6",
"S. c #CECFCF",
"D. c gray78",
"F. c gray60",
"G. c #868686",
"H. c #686868",
"J. c #868787",
"K. c #1B1C1C",
"L. c gray15",
"P. c gray74",
"I. c #6F6F6F",
"U. c #DDDDDD",
"Y. c gray39",
"T. c #434343",
"R. c #171718",
"E. c #707071",
"W. c #464646",
"Q. c #060606",
"!. c #A7A7A7",
"~. c #191919",
"^. c gray31",
"/. c gray10",
"(. c #4C4C4C",
"). c #111111",
"_. c #B5B6B5",
"`. c gray63",
"'. c gray8",
"]. c gray95",
"[. c gray96",
"{. c #222222",
"}. c gray3",
"|. c #AAAAAB",
" X c #CFCFD0",
".X c #DADADA",
"XX c #626262",
"oX c #888888",
"OX c #808080",
"+X c #E7E7E7",
"@X c #F4F4F5",
"#X c #7F7F80",
"$X c #FBFBFB",
"%X c gray86",
"&X c gray97",
"*X c #111212",
"=X c #2C2C2C",
"-X c #323232",
";X c #3C3C3C",
":X c gray7",
">X c #5B5B5B",
",X c #B0B0B1",
"<X c #313131",
"1X c #0B0B0B",
"2X c #434444",
"3X c #767777",
"4X c #262727",
"5X c #E6E6E6",
"6X c #909191",
"7X c #7C7D7D",
"8X c #686969",
"9X c #B7B7B7",
"0X c #9A9A9A",
"qX c #838282",
"wX c gray92",
"eX c #ECECEC",
"rX c #EEEEEE",
"tX c #7D7D7E",
"yX c #CECECE",
"uX c #B1B1B1",
"iX c gray72",
"pX c #929292",
"aX c #131313",
"sX c #161616",
"dX c gray18",
"fX c #3A3A3A",
"gX c #1E1E1E",
"hX c #272828",
"jX c #7B7B7A",
"kX c #7A7A79",
/* pixels */
"  . . . . . . . . . . . . . . . X X X X X X . . . . . . . . o O ",
"+ @ @ @ @ @ @ # # @ @ @ @ $ % & * * * * * =   @ @ @ @ @ @ @ & - ",
"&   @ ;       % @ @ @ @ @ : > O , < 1 2 3 4 5 &   @ @ @ @ % $ X ",
"& 6   @ 7 7 7 +   @ @ @   > 8 9 0 0 0 0 0 0 q w e % @ @ @ 6 & X ",
"&   r o t y t u i @ @ @ . * p 0 a s 0 a a d 0 f > o @ @ @ 6 & X ",
"& @ g h j k l z x . @ o c v b 0 0 0 n 0 0 0 m M O N   @ @ @ & X ",
"  B V C Z A Z S 0 D @ F . , G G s H J K L P I U Y f @ 6 @ @ & X ",
"o T K R Z E W Q x !   ~ ^ 0 0 0 h Z Z / ( ) _ ` ' ] T - @ @ & X ",
"= p [ { Z . 0 X u 0 k } 0 |  ...X.Z Z o.> O.0 0 +.C 4 @.o @ & X ",
"@.#.$.%.Z &.*.=.0 s 0 0 . @ -.;.0 :.Z Z Z Z E >.Z ,.<.' F   & X ",
"& x 1.h Z 2.3./ 4.5.a 0 6.u 7.8.0 p Z 9.0.q.M w.e.Z 3.r.* : & X ",
"@.t.y./ Z f j u.i.p.0 0 a.s.d.8.f.4.g.h.j.k.l.z.x.] c.v.o @ & X ",
"F b.0 X.Z n.m.M.4.d 0 0 5.0 O Z N.0 L =.Z Z Z n.B.M.0 8     & X ",
"> V.C.Z.Z A.S.D.0 0 d 0 5.0 & Z -.F.Z Z Z G.@.H.~ H.u 7 D   & X ",
"J.K.L.P.Z I.X.Z :.r.0 d s 0 q %.Z Z Z U.Y.F @.Z Z Z U.y.T.7 # X ",
"c y R.0 E.e.> 3 W.Q.d d 0 a 0 h 8.x Z o. .Z Z C.!.Z T 0 ~.c @ X ",
"@   ^./.1.(.1 ).p.0 0 0 d 0 0 $.5.^._.x.Z &.Z u.Z `.g.a 5.'.f o ",
"G.m o Z Q ].[.Z Z 9 {.r.0 0 d 0 0 }.0 V |.9 J  X.XXX0 a 0 s I.o ",
"oXh.OXZ I Z Z +XG.p.@X^.0 G 0 d s 0 0 0 0 0 0 0 0 0 s 0 0 Q.I.o ",
"#Xb.P >.Z $XZ %XC.}.o L.0 s 0 0 0 0 d 0 d d d d d d 0 0 0 a I.o ",
"o T L.m.Z I &XZ Z *X0 0 d 0 0 0 0 0 0 0 0 0 0 0 0 0 0 d 0 5.I.o ",
"& : x ! =X-X;X, {.G G d 0 s 5.s 0 0 0 0 0 0 0 0 0 0 s 0 :XH.o - ",
"&   + * t.>XZ ,X0 s 0 0 d 0 0 0 5.0 0 0 0 0 0 0 G G 0 0 <XOX& X ",
"& @ o = P >X{ & 0 G d d 0 j 8 ' 0 s 0 0 0 0 G a 0 0 1X2XN 3X& X ",
"& 6 @ 3X= >X4X1.0 0 0 Q.0 > Z 5XX.0 s 0 s 0 0 0 | c.q 6X7 6 & X ",
"& @ @ @ o 7Xa.. (.! 1X0 8X&.Z Z 9X0 a d 0 p.3.0XZ qX0 ] M.5 & X ",
"& 6 @ @ @   . + 7 q %. .wX$XeXrXe.tX0 h.| z rXZ 9.yXuXiXpXaXf o ",
"& % @ @ @ @ % & O sXdXfX] q ] t.<Xk p.l a.W.gXq hX' 1 M.dX).w o ",
"& @ @ @ @ @ @ @ @ & O f O x x x O x @ % o : x x x O f f O & & X ",
"& @ @ @ @ @ @ @ @ @ & + e e e e + & @ @ @ @ jXc c e c e & @ & X ",
"&   @ @ 6 6 @ @ @ %   6 6 6 6 6 % 6 % @ @ ; % % % %   % %   $ X ",
"+ @ & & kX# kX& & & & & & & & & & & & & & & & & & & & & & & + . "
};
