/* XPM */
static char *result[] = {
/* columns rows colors chars-per-pixel */
"32 32 203 2 ",
"   c #787979",
".  c #797979",
"X  c #787978",
"o  c gray47",
"O  c #7C7C7C",
"+  c #7C7D7D",
"@  c #7C7D7C",
"#  c gray48",
"$  c #6B6C6C",
"%  c #6A6A6A",
"&  c gray42",
"*  c #7B7B7B",
"=  c #777777",
"-  c #585858",
";  c #070707",
":  c #010101",
">  c gray1",
",  c #020202",
"<  c #040404",
"1  c #505050",
"2  c #747474",
"3  c #797978",
"4  c #646464",
"5  c black",
"6  c #535454",
"7  c #7E7E7E",
"8  c #767676",
"9  c #757675",
"0  c #828383",
"q  c #6C6C6C",
"w  c gray2",
"e  c gray36",
"r  c gray54",
"t  c #777877",
"y  c #848584",
"u  c gray24",
"i  c #2B2B2C",
"p  c #393939",
"a  c gray35",
"s  c gray53",
"d  c gray50",
"f  c gray28",
"g  c gray33",
"h  c #C6C6C6",
"j  c white",
"k  c #A2A2A2",
"l  c gray60",
"z  c #161616",
"x  c gray7",
"c  c #323232",
"v  c #3F3F3F",
"b  c #898A8A",
"n  c #282828",
"m  c gray4",
"M  c #4C4C4C",
"N  c #3C3C3C",
"B  c DimGray",
"V  c #252525",
"C  c gray8",
"Z  c gray6",
"A  c gray14",
"S  c gray43",
"D  c #6D6D6D",
"F  c #656565",
"G  c gray23",
"H  c #0E0E0F",
"J  c #444444",
"K  c #D8D8D8",
"L  c LightGray",
"P  c #F9F9F9",
"I  c #232323",
"U  c #ACACAC",
"Y  c #F3F3F3",
"T  c gray39",
"R  c #0C0C0C",
"E  c #6F6F6F",
"W  c gray49",
"Q  c #777878",
"!  c #202021",
"~  c #131313",
"^  c #AEAEAE",
"/  c gray90",
"(  c #CDCDCD",
")  c #CECECE",
"_  c gray11",
"`  c gray77",
"'  c #535353",
"]  c #818181",
"[  c gray69",
"{  c gray55",
"}  c gray65",
"|  c gray66",
" . c #A4A4A4",
".. c #464646",
"X. c gray95",
"o. c #7A7B7A",
"O. c #808080",
"+. c #0E0E0E",
"@. c gray34",
"#. c gray57",
"$. c #717171",
"%. c gray40",
"&. c #606060",
"*. c #A5A5A5",
"=. c #3C3D3D",
"-. c #434343",
";. c #898989",
":. c #5F5E5F",
">. c #060505",
",. c #373737",
"<. c #D5D5D5",
"1. c #848484",
"2. c #1B1B1B",
"3. c gray31",
"4. c gray27",
"5. c #434344",
"6. c #565656",
"7. c gray98",
"8. c gray97",
"9. c gray13",
"0. c #838383",
"q. c #767777",
"w. c gray79",
"e. c gray75",
"r. c gray62",
"t. c #5B5B5B",
"y. c #E6E6E6",
"u. c #313131",
"i. c #2F2F2F",
"p. c gray93",
"a. c #CCCDCD",
"s. c #878888",
"d. c #8E8E8E",
"f. c gray73",
"g. c #060606",
"h. c #7A7B7B",
"j. c #424243",
"k. c #A7A7A7",
"l. c gray68",
"z. c #929292",
"x. c #111211",
"c. c #626262",
"v. c gray25",
"b. c #131314",
"n. c #080809",
"m. c #8B8B8B",
"M. c #C0C0C0",
"N. c gray94",
"B. c gray51",
"V. c #101010",
"C. c gray3",
"Z. c #747574",
"A. c #888988",
"S. c gray29",
"D. c gray74",
"F. c #D7D7D7",
"G. c #979797",
"H. c #FDFDFD",
"J. c #727373",
"K. c #B1B1B1",
"L. c gray46",
"P. c gray20",
"I. c #F6F6F6",
"U. c #FBFBFB",
"Y. c gray99",
"T. c #202020",
"R. c #0A0909",
"E. c gray45",
"W. c #494949",
"Q. c #1E1E1E",
"!. c #89898A",
"~. c #DCDCDB",
"^. c gray10",
"/. c gray38",
"(. c gray70",
"). c #2A2A2A",
"_. c #7E7F7F",
"`. c #888888",
"'. c gray56",
"]. c #3A3A3A",
"[. c #181818",
"{. c #585859",
"}. c #858686",
"|. c #AAAAAA",
" X c gray89",
".X c #676767",
"XX c #111111",
"oX c #575758",
"OX c #515151",
"+X c #4E4E4E",
"@X c #686868",
"#X c #1D1D1D",
"$X c gray92",
"%X c gray71",
"&X c #828382",
"*X c #7B7C7B",
"=X c gray21",
"-X c #2D2D2D",
";X c gray16",
":X c gray44",
">X c #6F706F",
",X c #797A79",
"<X c #7A7A79",
/* pixels */
"  . . . . . . . X o O + @ @ @ @ o o . . . . . . . . . . . .   # ",
"  . . . . . . . # @ $ % & & % & O * X . . . . . . . . . . . X # ",
"  . . . . .   . = - ; : > > , < 1 2 # 3 . . . . . . . . . .   # ",
"  . .   . . o O 4 : 5 5 5 5 5 5 5 6 7 8 . . . . . . . . . .   # ",
"  . . . . . 9 0 q 5 > w < : 5 , 5 e r * 8 t . . . . . . . . X # ",
"  . . . . = y - u o 5 5 5 5 : : 5 i p a s 7 o   . . . . . .   # ",
"  .   . = d f g h j k l l z 5 5 5 5 5 x c v d # . . . . . .   # ",
"  .     . b n m M N B j j V 5 C Z w , 5 5 5 A S . o . . . .   # ",
". . X . D F G H J K L P j I 5 U Y T 5 < , 5 5 R E W = . . . . # ",
"  . Q 7 ! ~ ^ / ( j j j ) _ 5 5 ` 7 5 < 5 : : 5 ' * W o . .   # ",
"  . o ] Z [ j { 5 } |  .< 5 w ..X.7 5 < 5 5 5 , 5 G D . 3 . 3 o.",
". . Q O.+.@.#.$.%.&.' 5 5 5 < { *.=.5 , 5 5 5 5 > 5 -.;.8 . . o.",
"  . X . :.>.,.<.j j j 1.w 5 5 5 5 5 : 5 5 5 5 5 : 5 2.3.* o . o.",
"  . o * 4.; N F 5.6.7.8.R 5 : > < , 5 5 5 5 5 5 5 > 5 9.0.q.. o.",
". . o O.x # w.e.r.5 t.y.R 5 : 5 5 5 5 5 5 5 5 5 5 5 : w u.d o # ",
". .   o * i.*.j j p.Y a.m 5 : 5 5 5 5 : < > 5 5 5 5 , 5 x E o # ",
". . . = s.m d.j j j f.Z 5 : 5 5 5 , g.5 5 5 w < 5 5 5 : 5 C = h.",
". . . o 7 j.%.k.l.z.5 5 5 5 5 5 : 5 5 x.c.v.5 5 5 : 5 : 5 b.] * ",
". . . . = 1.' n.5 5 : : 5 5 5 , 5 ' m.M.j N.B.] V.5 : 5 5 C.-.= ",
"  . . . . Z.A.S.5 w 5 5 5 5 5 < 5 D.F.G.j H.j j 9.5 , 5 : 5 < J.",
"  . . . . = ] u 5 , 5 5 5 5 5 > 5 K.L.P.j I.U.Y.T.5 , 5 : 5 R.E.",
"  . . . . = O.W.< , 5 5 5 5 5 5 5 x Q.!.j j j ~.2.5 : : 5 5 ^.2 ",
"  . . . . . = O.S.5 < , 5 5 5 < C.5 /.L M.w.(.+.5 5 , 5 5 ).q.* ",
". . . . . . o W T 9.5 5 5 < < 5 5 5 5 5 5 5 5 5 : > 5 < v.7 . o.",
"  . . . . . . Q _.2 v.,.< 5 5 $.`.'.].5 w 5 5 5 5 5 [.{.B.=   h.",
". . . . . . . . o o }.Q < y |.j j j  X.X5 XXoXOX+XW.% B.8 . . h.",
". . . . . . . . X O @X#Xl.j j Y N.$Xj %X5 < I . &X] *X= . . . o.",
". . . . . . . . o O & V.=X-X;X-X-X-X-X9.+.R Z :X. 8 o . . . X o.",
". . . . . . . . . . . = D E >XE E E E $.= 8 t . . . . . . . . # ",
". . . . . . . . . . . # * * * * * * *X* ,X<X# . . . . . . .   h.",
". . . . . . . . . . . X .   3 X X X X X X X . . . . . . . . . h.",
". . . . . . . . . . . . . . . . . . . . . . . . . . . . . .   # "
};
