/* XPM */
static char *result[] = {
/* columns rows colors chars-per-pixel */
"32 32 240 2 ",
"   c #6C6C6C",
".  c #767676",
"X  c #747474",
"o  c gray46",
"O  c #747575",
"+  c #747475",
"@  c #757474",
"#  c #757475",
"$  c gray44",
"%  c #717171",
"&  c #7B7B7B",
"*  c #797979",
"=  c gray48",
"-  c #797A7A",
";  c #7A7A79",
":  c #797A79",
">  c #7B7B7A",
",  c #7A7B7B",
"<  c #787978",
"1  c #787979",
"2  c gray47",
"3  c #7A7A7B",
"4  c gray50",
"5  c #808080",
"6  c gray45",
"7  c #2A2A2A",
"8  c #111111",
"9  c #161616",
"0  c gray9",
"q  c gray6",
"w  c gray22",
"e  c #777777",
"r  c #6F6F6F",
"t  c #7C7C7C",
"y  c gray37",
"u  c #5B5B5B",
"i  c gray36",
"p  c gray49",
"a  c black",
"s  c gray13",
"d  c #585858",
"f  c #464646",
"g  c #444444",
"h  c #414141",
"j  c #585859",
"k  c gray43",
"l  c #7E7E7E",
"z  c #151515",
"x  c #060606",
"c  c #070707",
"v  c #848585",
"b  c #626262",
"n  c #FBFBFB",
"m  c white",
"M  c gray10",
"N  c #3E3D3D",
"B  c gray54",
"V  c #818181",
"C  c gray35",
"Z  c gray24",
"A  c gray5",
"S  c gray12",
"D  c #353535",
"F  c #5A5A5A",
"G  c gray53",
"H  c gray40",
"J  c #F3F3F3",
"K  c #F4F4F4",
"L  c #8B8B8B",
"P  c gray70",
"I  c gray27",
"U  c gray33",
"Y  c gray38",
"T  c gray11",
"R  c #656565",
"E  c gray74",
"W  c #848484",
"Q  c gray83",
"!  c gray99",
"~  c #555555",
"^  c #1D1D1D",
"/  c #2C2C2C",
"(  c #7E7F7F",
")  c gray34",
"_  c gray91",
"`  c #040404",
"'  c gray28",
"]  c #5F5F5F",
"[  c #B4B4B4",
"{  c #AFAFAF",
"}  c #4E4E4E",
"|  c #636464",
" . c #A4A4A4",
".. c #A2A2A2",
"X. c #A5A5A5",
"o. c #4F4F50",
"O. c #020202",
"+. c #4B4B4B",
"@. c #F6F6F6",
"#. c #FEFEFE",
"$. c gray82",
"%. c gray76",
"&. c gray7",
"*. c #484848",
"=. c #CACACA",
"-. c #505050",
";. c #DDDDDD",
":. c #232323",
">. c #FDFDFD",
",. c gray16",
"<. c #434343",
"1. c gray52",
"2. c #6D6D6E",
"3. c gray32",
"4. c gray19",
"5. c #F9F9F9",
"6. c gray93",
"7. c gray29",
"8. c #1B1B1B",
"9. c gray89",
"0. c gainsboro",
"q. c #F1F2F1",
"w. c gray87",
"e. c #E4E4E4",
"r. c #B2B2B2",
"t. c #202020",
"y. c gray20",
"u. c #3C3C3C",
"i. c #4A4B4B",
"p. c #1E1E1E",
"a. c #E5E4E5",
"s. c #9A9A9A",
"d. c #CBCBCB",
"f. c gray21",
"g. c gray17",
"h. c #D5D5D5",
"j. c gray92",
"k. c #535353",
"l. c #2F2F2F",
"z. c gray57",
"x. c #ACACAC",
"c. c #CDCDCE",
"v. c #313131",
"b. c gray15",
"n. c gray96",
"m. c #898989",
"M. c gray66",
"N. c gray39",
"B. c #C5C5C5",
"V. c #EEEEEE",
"C. c gray56",
"Z. c #222222",
"A. c #343434",
"S. c #6A6A6A",
"D. c #737474",
"F. c #4C4C4D",
"G. c gray62",
"H. c gray59",
"J. c gray18",
"K. c gray95",
"L. c #646464",
"P. c #7D7E7E",
"I. c gray60",
"U. c gray94",
"Y. c #010101",
"T. c gray1",
"R. c gray31",
"E. c #868686",
"W. c #0C0C0D",
"Q. c #E7E7E7",
"!. c #929292",
"~. c #909090",
"^. c #8E8E8E",
"/. c gray71",
"(. c #727272",
"). c #323232",
"_. c #DADADA",
"`. c gray72",
"'. c #3E3E3E",
"]. c #101010",
"[. c gray3",
"{. c #2D2D2D",
"}. c gray86",
"|. c #4F5050",
" X c gray64",
".X c #C1C1C1",
"XX c gray67",
"oX c #C6C6C6",
"OX c #959595",
"+X c #373737",
"@X c #F1F2F2",
"#X c #020203",
"$X c #E6E6E6",
"%X c gray2",
"&X c #494949",
"*X c gray65",
"=X c #F8F8F8",
"-X c #9A999A",
";X c gray63",
":X c gray98",
">X c #69696A",
",X c #191919",
"<X c gray25",
"1X c #131313",
"2X c #AAAAAA",
"3X c gray23",
"4X c gray30",
"5X c gray8",
"6X c #7A7979",
"7X c gray73",
"8X c LightGray",
"9X c #272727",
"0X c #DFDFDF",
"qX c #3A3A3A",
"wX c #181818",
"eX c #070607",
"rX c #FCFCFB",
"tX c #8D8D8D",
"yX c gray42",
"uX c #515151",
"iX c #B6B6B6",
"pX c #606060",
"aX c #090909",
"sX c #5D5D5D",
"dX c #818180",
"fX c #868786",
"gX c gray4",
"hX c #5B5B5A",
"jX c #191A19",
"kX c #797978",
"lX c #4C4C4C",
"zX c #777776",
"xX c #565656",
"cX c gray51",
"vX c #838382",
"bX c #838383",
"nX c #7A7B7A",
"mX c #787877",
"MX c #777878",
"NX c #777877",
/* pixels */
"  . X o o o o O O o o O O o o O o O o o o o + @ X O + # o O . $ ",
"% & * = = = = = - = ; = = = - : : : : : ; = : : : : : : ; : > o ",
"$ , < * * * * * * * * 1 * 2 1 * * 1 * 2 2 * 1 < * * * * * < : X ",
"$ & < 2 2 2 2 * * * * * * & 3 = = = = & & * * * * * * * * * = X ",
"$ = 2 4 5 5 5 * 2 * * * 2 6 7 8 9 0 q w e 2 * * * * * * * * = X ",
"r t t y u i u 2 p 2 * * . 9 a a a a a a s & 2 * * * * * * * = X ",
"% . d f g h g j k * e 1 l z a a x c a a s v 2 e * * * * * * = X ",
"o b 9 n m m m M N B t V C a Z A a a S D a F & G * 2 * * * * = X ",
"* H x J K L m P I U Y T a R m E G W Q ! ~ a ^ / % ( 2 * * * = X ",
") Z P m _ ` '   M a ] [ { m e } b | ' G m  ...X.Z d 4 2 * * = X ",
"o.O.+.@.#.$.%.&.a *.=.-.m m ;.:.a a } _ m >.+.#.,.<.1.o * * = X ",
"2.3.4.5.6.7.m % a H @.8.%.9.0.q.#.>.6.w.e.r.t.J y.u.5 4 * 2 = X ",
"i.p.=.m a.a s.d.f.g.h.j.k.a l.z.x.{ e 9 a Y J c.t.a v.y e l * X ",
"R b.a K n.p Y A a a v.m m m.m M.H N.B.V.C.m m Z.a O.a a A.S.& D.",
"Y F.G.>.J H.m J.a a 0 m.K.G L.. P.l 6 L.I.U.. 8 a Y.Y.T.a R.E.% ",
"+.a . m j.W.Q.$.v.a a A K X.!.~.^.^.!.^./.e.a a Y.a a a O.0 C & ",
"(.d a )._.`.'.4.].a Y.[.{.}.m z.3.|. Xm $.:.x a a a O.` a a A.* ",
"k b / b.<.+.Y.9 A a Y.a a a ...Xx.XXoXOXa a a a a Y.a a 8.+X&.).",
"I 4.m m m @X#X$X6 a ` a O.a a T.%X%XO.a a O.a a Y.a b.-.;.m b ^ ",
"&X8 *X5.m =X2 -Xw a O.a a Y.Y.a a a a Y.Y.a a a %Xa ;X:X Xm N.S ",
">Xy.c m m m m w a %Xa a a a a a a a a a a a a a O.a *.g.,Xm N.M ",
"6 p 3.<.I h <X1Xa Y.T.O.a a a a a a a a a Y.T.T.a ` a u.2X3X4XL.",
"r & p -.5X=.w.{.a Y.a a a O.O.a a a Y.O.O.a a a O.O.a s D ).@ 6X",
"$ = * t h 7X8Xy.a [.g D %Xa a a O.T.a a a q '.Z a a a p.+ l t (.",
"$ > 2 = X 9Xa a {.s.m 0Xa g.A.%Xa a q qXwXM m m p O.eX) 4 e * X ",
"$ > < 2 = 4 8 6 rXm m m tXg e ) <X'.R yXuXiXm m m d.pX-.P.2 = X ",
"$ > < < = X aXd H d sXY yXa i W dX5 fXh gX(.hXi ~ 6 b.jXW e = X ",
"$ & kX* * 2 Y lX+.} } 4X7.y o 2 zX. * % xX' +.+.+.f 3.S.= 2 = X ",
"$ & < * * * l cXvXcXcXcXcX4 = < * * 2 & 5 bXbXbXbXbXV t kX* = X ",
"$ nX2 * * * mXmX2 2 MXNXe NX< * * 1 * 2 e NXe e NX2 NX2 * * = X ",
"$ & * * * * * * * * * * * * * * * * * * * * * * * * * * * * = X ",
"k 1 . e e e e e e e e e e e e e e e e e e e e e e e e e e e 2 (."
};
