/* XPM */
static char *result[] = {
/* columns rows colors chars-per-pixel */
"32 32 184 2 ",
"   c #606161",
".  c #606060",
"X  c #7E7E7E",
"o  c gray49",
"O  c #797979",
"+  c gray47",
"@  c #777777",
"#  c #767676",
"$  c gray48",
"%  c #818181",
"&  c #808080",
"*  c gray50",
"=  c #434343",
"-  c #252525",
";  c gray17",
":  c #262726",
">  c #393939",
",  c #7C7C7C",
"<  c #7B7B7B",
"1  c #313131",
"2  c black",
"3  c #1E1E1E",
"4  c #717171",
"5  c #7A7B7A",
"6  c #848484",
"7  c gray11",
"8  c #040404",
"9  c #020202",
"0  c gray1",
"q  c #030304",
"w  c gray46",
"e  c #838383",
"r  c #6A6A6A",
"t  c #656565",
"y  c #1B1B1B",
"u  c #010101",
"i  c gray3",
"p  c #5B5B5B",
"a  c #807F80",
"s  c #515151",
"d  c #4C4C4C",
"f  c #131313",
"g  c #3A3A3A",
"h  c gray44",
"j  c gray25",
"k  c #535353",
"l  c #828382",
"z  c #797A7A",
"x  c gray2",
"c  c gray70",
"v  c gray23",
"b  c #7E7F7F",
"n  c gray45",
"m  c #0E0E0E",
"M  c gray75",
"N  c white",
"B  c #B9B9B9",
"V  c gray38",
"C  c #060606",
"Z  c #BBBBBB",
"A  c #FDFEFD",
"S  c #A5A5A5",
"D  c gray6",
"F  c gray39",
"G  c #646464",
"H  c #787777",
"J  c #797A79",
"K  c #060607",
"L  c #C3C3C4",
"P  c #F8F8F8",
"I  c gray73",
"U  c #343434",
"Y  c #6D6D6D",
"T  c #383839",
"R  c #5D5D5D",
"E  c gray91",
"W  c gray78",
"Q  c #232323",
"!  c gray52",
"~  c gray32",
"^  c gray7",
"/  c #8D8D8D",
"(  c gray62",
")  c gray79",
"_  c #010102",
"`  c #0B0B0B",
"'  c #5A5A5A",
"]  c #A9A9A9",
"[  c #111111",
"{  c gray20",
"}  c #CACACA",
"|  c gray36",
" . c #EEEEEE",
".. c gray31",
"X. c gray9",
"o. c gray26",
"O. c gray40",
"+. c #C3C3C3",
"@. c #353535",
"#. c #868686",
"$. c gray22",
"%. c #2F2F2F",
"&. c gray90",
"*. c #C0C0C0",
"=. c #282828",
"-. c gray5",
";. c #161616",
":. c #DADADA",
">. c gray8",
",. c gray64",
"<. c gray4",
"1. c #494949",
"2. c #F6F6F6",
"3. c #C5C5C5",
"4. c #1A191A",
"5. c gray95",
"6. c #EFF0F0",
"7. c #A7A7A7",
"8. c gray53",
"9. c #373737",
"0. c #414141",
"q. c #EFEFEF",
"w. c #F4F4F4",
"e. c #B6B6B6",
"r. c #686868",
"t. c gray87",
"y. c gray54",
"u. c gray27",
"i. c gray59",
"p. c #FAFAFB",
"a. c #9F9F9F",
"s. c #4E4E4E",
"d. c #6C6C6C",
"f. c gray21",
"g. c gainsboro",
"h. c #CECFCF",
"j. c #484848",
"k. c #464646",
"l. c gray42",
"z. c #202020",
"x. c #49494A",
"c. c #2A2A2A",
"v. c gray33",
"b. c gray24",
"n. c #090808",
"m. c gray18",
"M. c #6F6F6F",
"N. c #757675",
"B. c #090909",
"V. c gray12",
"C. c gray15",
"Z. c #5F5F5F",
"A. c #898989",
"S. c #797978",
"D. c #787979",
"F. c #DADBDB",
"G. c gray97",
"H. c #222222",
"J. c #151515",
"K. c gray89",
"L. c gray43",
"P. c #666667",
"I. c #3E3E3E",
"U. c #888888",
"Y. c #626262",
"T. c #202021",
"R. c #7E7F7E",
"E. c #505050",
"W. c #696A69",
"Q. c #8B8B8B",
"!. c #858584",
"~. c #787978",
"^. c #747474",
"/. c #3C3C3C",
"(. c gray29",
"). c #3C3C3B",
"_. c #444444",
"`. c #7C7C7B",
"'. c gray51",
"]. c #777877",
"[. c #828281",
"{. c #838382",
"}. c #777878",
"|. c #797878",
/* pixels */
"  . . . . . . . . . . . . . . . . . . . . . . . . . . . . . . . ",
"X o o o o o o o o o o o o o o o o o o o o o o o o o o o o o o o ",
"O + + + + + + + + + + + @ # # # # @ + + + + + + + + + + + + + + ",
"$ O O O O O O O O O O + X % & & % * O O O O O O O O O O O O O O ",
"$ O O O O O O O O O + X = - ; ; : > , O O O O O O O O O O O O O ",
"$ O O O O O O O O @ < 1 2 2 2 2 2 2 3 4 5 O O O O O O O O O O O ",
"$ O O O O O O @ @ < 6 7 2 8 9 9 0 2 q w < @ O O O O O O O O O O ",
"$ O O O O O @ * e r t y 2 u 2 2 2 2 i p o o @ O O O O O O O O O ",
"$ O O O O O a s d f 2 u 2 2 2 2 2 2 2 2 g h 6 # O O O O O O O O ",
"$ O O O O # j 2 2 2 u 2 2 2 2 2 2 2 2 9 2 i k l @ O O O O O O O ",
"$ O O + z w x 2 0 u 2 2 2 2 2 2 2 2 9 2 $ c + v b @ + O O O O O ",
"$ O O O o n m 2 u 2 2 2 2 2 2 2 2 2 0 2 M N B f & , X $ + O O O ",
"$ O + @ V f u 2 2 2 2 2 2 2 2 2 2 2 C x Z N A S D F G w , H J O ",
"$ @ * h K 2 2 2 2 2 2 2 2 2 2 2 9 9 2 L N P N I 2 0 2 U + , @ O ",
"O $ Y T 2 0 u 2 2 2 2 2 2 2 2 0 2 2 R E N N N W 2 0 9 2 Q # % # ",
"@ ! ~ ^ + 2 2 2 u 2 2 u u u 9 2 2 / N N ( ) P s 2 _ 2 8 2 ` ' e ",
"* p i g N ] [ 2 2 2 0 2 2 2 2 { } N |  ...X.o.2 9 2 0 2 O.+.F @.",
"#.$.%.&.N N 1 *.=.2 2 -.;.0 t N :.Q 2 3 >.2 2 8 2 2 0 2 ,.N 6 <.",
"#.v 1.N 2.3.Q W 2.p 4.+.N 5.6.,.2 2 9 2 2 0 0 2 2 8 2 7.N N & >.",
"8.9.0.N q.i 2 >.N N N N W w.e.2 u 9 2 9 u 2 2 2 2 9 2 r.t.N y.i ",
"& ' u.i.6 x 2 ` w p.a.q.s.{ d.2 0 2 2 2 2 2 2 2 2 u 2 f.g.h.j.k.",
"+ & l.z.2 2 0 u 2 x.<.v c.2 2 9 2 2 2 2 2 2 u 9 9 9 2 v.@ b.v.! ",
"$ # * w n.2 2 2 8 2 2 2 2 x 0 2 2 9 9 2 2 9 2 2 2 2 2 m.d M.e N.",
"$ O + O r.B.V.Q i 2 2 8 2 2 0 9 u 2 2 2 0 2 2 C.z.i ^ Z.A.$ @ O ",
"$ S.O D.s.2 F.G.8 - ;.2 ;.^ 2 2 2 H.- u 2 J.$ N K.2 ; L.* @ O O ",
"$ + o P.<.o N N e N p 2 d l.m.{ I.o % ~ 2 8.N N N U., p Y.o + O ",
"$ + o O.` * w 4 % , X.T.F R.% % & @ O E.u m.n W.Y < Q.y $.!.@ O ",
"$ ~.$ ^.s.> /./.> g k.w * @ @ @ @ + < ..(.k.g /.).$.f._.r `.+ O ",
"$ O D.$ % ! ! ! ! ! '.O ].O O O O O ~.% [.{.! ! ! ! ! e , S.O O ",
"$ O O O @ @ @ @ @ @ @ + O O O O O O O }.@ @ @ @ @ @ @ @ + O O O ",
"$ O O O O O O O O O O O O O O O O O O O O O O O O O O O O O O O ",
"z + ~.~.S.S.S.~.~.S.+ + + + + ~.+ + ~.+ + ~.S.|.~.~.~.S.S.+ ~.+ "
};
