/* XPM */
static char *result[] = {
/* columns rows colors chars-per-pixel */
"33 32 86 1 ",
"  c black",
". c #010000",
"X c #000001",
"o c #000201",
"O c #060606",
"+ c gray3",
"@ c #0C0C0C",
"# c #252525",
"$ c #2C2F2E",
"% c #313030",
"& c #414141",
"* c gray27",
"= c #6E6F6F",
"- c #777776",
"; c #797978",
": c #7A797A",
"> c #797A7A",
", c #7B7A7A",
"< c #7A7B7A",
"1 c #7B7B7A",
"2 c #7A7A7B",
"3 c #7B7A7B",
"4 c #7A7B7B",
"5 c #7B7B7B",
"6 c #7C7B7A",
"7 c #7C7A7B",
"8 c #7C7B7B",
"9 c #7D7B7B",
"0 c #7B7C7A",
"q c #7A7C7B",
"w c #7B7C7B",
"e c #7C7C7B",
"r c #7C7D7B",
"t c #7B7A7C",
"y c #7A7B7C",
"u c #7B7B7C",
"i c #7B7B7D",
"p c #7C797C",
"a c #7C7A7C",
"s c #7C7B7C",
"d c #7D7B7C",
"f c #7A7C7C",
"g c #7B7C7C",
"h c #7B7C7D",
"j c #7C7C7C",
"k c #7D7D7C",
"l c gray49",
"z c #7E7C7D",
"x c #7E7E7F",
"c c #808180",
"v c #808181",
"b c gray51",
"n c gray52",
"m c #858686",
"M c gray53",
"N c #8A8B8B",
"B c gray62",
"V c #AEAFAF",
"C c #AFAFAF",
"Z c #B1B3B3",
"A c gray",
"S c #D2D3D2",
"D c #D4D5D5",
"F c #DADBDA",
"G c #DEDDDE",
"H c #E7E7E8",
"J c #F5F6F6",
"K c #FBFAFA",
"L c #FDFDFD",
"P c #FEFDFD",
"I c #FDFEFD",
"U c #FEFEFD",
"Y c #FDFCFE",
"T c #FDFDFE",
"R c #FEFDFE",
"E c #FCFEFE",
"W c #FDFEFE",
"Q c #FDFEFF",
"! c #FEFEFE",
"~ c #FFFEFE",
"^ c #FEFFFE",
"/ c #FFFFFE",
"( c #FEFEFF",
") c #FFFEFF",
"_ c #FEFFFF",
"` c white",
/* pixels */
"8ug88gsqsjass355555gws8wws5w5u8eu",
"8855w55js485e858w5geuw3y5w8g58js5",
"555555gs2   jwuw858j5;  48865ugu5",
"848u585d !o u        : ^ 5s85e5u3",
"yu583uau ~             ` xt4ues55",
"888su851 !WR          !_ cu55u4ws",
"655588js&@R)$        Z)+ =s5swuew",
"wsu5u5e8> P`W       .`/ 5uegs48u5",
"8uwuuuw5  J_Y        `)  N3jw5j85",
"gju5gjz     )        `     uwij53",
"5s5uwsk                   Ouu8wu1",
"w8u5u8                      s85w5",
"g5gwus                      885h5",
"gyt55%                       w815",
"www5-                        vj8u",
"5eu                           eus",
"5j                             sf",
"5j !S                        _ ws",
"gs LD                        ` sg",
"yg P!!                      W/ 8u",
"wd*VR^                      ~I#<5",
"jj8  ^^                    WQ euu",
"ug5                           7g5",
"w8u833                      55515",
"55w88w  ^X              )   ssur5",
"se48js ``!~G          E(`)U t0se9",
"sg65u5  )^!`  nmMbjl C(`!.. 8jw5w",
"3y5533  !HAB  g5552e KTWF   u8584",
"u855s5g       e155w5       7ueu85",
"5u4555i5u4p587e5w38858eu551gu8u55",
"g455u3a55w85u8s555455u5suu5wu5u5e",
"054537,w5u541355858w17su8wwg5uu25"
};
