/* XPM */
static char *result[] = {
/* columns rows colors chars-per-pixel */
"32 32 122 2 ",
"   c black",
".  c #010000",
"X  c #000100",
"o  c #000001",
"O  c #010001",
"+  c #020100",
"@  c #030100",
"#  c #020102",
"$  c #040404",
"%  c gray3",
"&  c gray5",
"*  c #131313",
"=  c gray8",
"-  c #171718",
";  c #191919",
":  c #212021",
">  c #323231",
",  c #333434",
"<  c #454547",
"1  c #555555",
"2  c #565554",
"3  c #555657",
"4  c #696768",
"5  c gray42",
"6  c #6C6E6D",
"7  c #6E6F70",
"8  c #707071",
"9  c #747474",
"0  c #7A7A79",
"q  c #7B7A79",
"w  c #79797A",
"e  c #7A797A",
"r  c #7B797B",
"t  c #797A7B",
"y  c gray48",
"u  c #7B7A7A",
"i  c #7A7B7A",
"p  c #7B7B7A",
"a  c #7A7A7B",
"s  c #7B7A7B",
"d  c #7A7B7B",
"f  c #7B7B7B",
"g  c #7C7A7A",
"h  c #7C7B7A",
"j  c #7C7A7B",
"k  c #7C7B7B",
"l  c #7D7B7B",
"z  c #7B7C7A",
"x  c #7A7C7B",
"c  c #7B7C7B",
"v  c #7B7D7B",
"b  c #7C7C7A",
"n  c #7C7C7B",
"m  c #7C7D7B",
"M  c #7C7E7B",
"N  c #7A7A7C",
"B  c #7B7A7C",
"V  c #7A7B7C",
"C  c #7B7B7C",
"Z  c #7A7B7D",
"A  c #7B7B7D",
"S  c #7C7A7C",
"D  c #7C7B7C",
"F  c #7C7B7D",
"G  c #7D7B7D",
"H  c #7A7C7C",
"J  c #7B7C7C",
"K  c #7B7C7D",
"L  c #7B7D7D",
"P  c #7C7C7C",
"I  c #7D7C7C",
"U  c #7C7C7D",
"Y  c #7D7C7D",
"T  c #818282",
"R  c #838382",
"E  c #828483",
"W  c #848384",
"Q  c #848585",
"!  c #8A8B8B",
"~  c #8D8D8C",
"^  c #8E8E8E",
"/  c #919292",
"(  c #9C9D9C",
")  c #9F9F9F",
"_  c #A7A8A8",
"`  c #ACACAD",
"'  c #C7C6C5",
"]  c #C7C7C8",
"[  c #C8C8C9",
"{  c #CDCCCD",
"}  c #D0CFD0",
"|  c LightGray",
" . c #DEDFDF",
".. c #E2E2E2",
"X. c gray91",
"o. c #E9E9E9",
"O. c #E9EAEA",
"+. c #F0F0EF",
"@. c #F4F5F4",
"#. c #F6F6F7",
"$. c #F8F8F9",
"%. c #FBFCFE",
"&. c gray99",
"*. c #FDFDFD",
"=. c #FEFCFC",
"-. c #FEFCFD",
";. c #FEFDFD",
":. c #FDFEFC",
">. c #FDFEFD",
",. c #FEFEFD",
"<. c #FDFDFE",
"1. c #FEFDFE",
"2. c #FEFDFF",
"3. c #FDFEFE",
"4. c #FEFEFE",
"5. c #FFFEFE",
"6. c #FEFFFE",
"7. c #FFFFFE",
"8. c #FEFEFF",
"9. c #FFFEFF",
"0. c #FEFFFF",
"q. c white",
/* pixels */
"C s k C C c C j C l D c D Z n U C f n x f C c p b C D i P f B k ",
"n c P I K k Y P m f M p P d F P c A L P f c J J D J F f k c n x ",
"D d     @ f r k J k         J S ~       C C P f f w     k P d f ",
"n C   =.5.      ^                         c         8.  d C J f ",
"n f   #.4.4.%.;.+                           -.q.q.7.2.  D J f D ",
"f D Q o o   9.5.4.3 6 4               & * : 9.8.O.o   7 P k f J ",
"C C f   $ ;  .q.6.6.' q.            = 0...q.0.W $ 2 < f f k C p ",
"f z f k n f   3.4.% o 4.q.          q.q.  7.q.  - C A c C C f f ",
"n f f h z q       5.:.  0.0.    X.5.q.  0.      9 c J f z C f f ",
"f p f D d       > 7.q.6.q.5.0.q.q.7.q.q.q.9.        k n k k n k ",
"C D c n V                 8.7.q.q.;.                k J k f n f ",
"C J c !               4.    8.9.5.    7.              C f n f C ",
"C f                   6.6.  q.q./ X 4.q.                k c f f ",
"f                     ) 9., ( q.6.} 0.{                 o f h f ",
"P       +.|             0.5.      $.q.            4.*.    p J f ",
"c     R 9.q.            q.  q.8.  # 1.            0.q.    e C J ",
"C   9.6.q.5.q.          q.4.    8 7.*.        4.q.q.5.0.  i f f ",
"f   4.0.q.q.q.q.          q.6.0.8.o.        *.0.7.9.q.6.  f k f ",
"P   9.7.0.  0.5.                            &.6.>.  0.q.  i f f ",
"f   6.7.8.                                          0.q.  p k x ",
"J e   1 q.8.                                      <.q.. P c D s ",
"f J T                                             O   E k k C d ",
"f k k                                                 f C c u p ",
"D f k f d       _ [ 5                   X ` 4.      d f f k s f ",
"f f f A e     q.5.q.]                   0.8.7.      j s c d f f ",
"C p f F     8.5.7.9.8.6.              9.q.5.0.5.@.    f p c i s ",
"P D g G     0.q.  7.7.9.  u f s f v   7.7.  4.0.,.    C f a J p ",
"f k c C K               s V f c x a k               s u c f k k ",
"k f d k B a e t a y y y J c s c k c D p a 0 f s u s f f f p c k ",
"f a f f f f f D d f k P u f d z f k C P k f f f c n C f D s f z ",
"f s c s f C C J n J C c c f s c D H f f k f k C C P C g f s V b ",
"i f C f C J N n f s C J f c f J c C f c k f C k f p J f f f n k "
};
