/* XPM */
static char *result[] = {
/* columns rows colors chars-per-pixel */
"32 32 116 2 ",
"   c black",
".  c #010000",
"X  c #000100",
"o  c #000001",
"O  c #020102",
"+  c #020103",
"@  c #010202",
"#  c #020202",
"$  c #020203",
"%  c #090808",
"&  c #151515",
"*  c #1E1F1F",
"=  c #202121",
"-  c #222122",
";  c #262727",
":  c #2E2E2F",
">  c gray19",
",  c #383839",
"<  c #3C3D3B",
"1  c #4C4B4C",
"2  c #606261",
"3  c #6E6F6F",
"4  c #717272",
"5  c #727372",
"6  c #757476",
"7  c #767676",
"8  c #767776",
"9  c #777776",
"0  c #777677",
"q  c #777777",
"w  c #787777",
"e  c #787877",
"r  c #787778",
"t  c #767878",
"y  c gray47",
"u  c #797878",
"i  c #787879",
"p  c gray48",
"a  c #7B7A7A",
"s  c #7A7B7A",
"d  c #7B7B7A",
"f  c #7A7A7B",
"g  c #7B7A7B",
"h  c #7A7B7B",
"j  c #7B7B7B",
"k  c #7C7B7A",
"l  c #7C7A7B",
"z  c #7C7B7B",
"x  c #7A7C7A",
"c  c #7B7C7A",
"v  c #7A7C7B",
"b  c #7B7C7B",
"n  c #7B7D7B",
"m  c #7C7C7A",
"M  c #7C7C7B",
"N  c #7D7C7B",
"B  c #7C7D7B",
"V  c #7A7A7C",
"C  c #7B7A7C",
"Z  c #7A7B7C",
"A  c #7B7B7C",
"S  c #7C7A7C",
"D  c #7C7B7C",
"F  c #7B7C7C",
"G  c #7B7C7D",
"H  c #7C7C7C",
"J  c #7C7D7C",
"K  c #7D7D7C",
"L  c #7C7C7D",
"P  c #7D7C7D",
"I  c gray49",
"U  c #7E7C7D",
"Y  c #7E7E7D",
"T  c #7D7D7E",
"R  c #7F7D7E",
"E  c #7E7E7E",
"W  c #7E7F7E",
"Q  c #7E7E7F",
"!  c #828080",
"~  c #838383",
"^  c #888888",
"/  c gray54",
"(  c #8A8B8B",
")  c gray55",
"_  c #8C8D8D",
"`  c #929191",
"'  c #B7B6B6",
"]  c #BCBCBD",
"[  c #CBCDCD",
"{  c #CDCCCD",
"}  c #D1D0D1",
"|  c #EDECEC",
" . c #EFEFF0",
".. c #F8F8F9",
"X. c #FBFBFB",
"o. c gray99",
"O. c #FCFDFC",
"+. c #FCFDFD",
"@. c #FDFDFD",
"#. c #FEFEFD",
"$. c #FEFFFD",
"%. c #FCFCFE",
"&. c #FDFDFE",
"*. c #FCFCFF",
"=. c #FEFDFE",
"-. c #FDFEFE",
";. c #FDFFFE",
":. c #FDFFFF",
">. c #FEFEFE",
",. c #FFFEFE",
"<. c #FEFFFE",
"1. c #FFFFFE",
"2. c #FEFEFF",
"3. c #FFFEFF",
"4. c #FEFFFF",
"5. c white",
/* pixels */
"h g b j z j j b j A V j M M j H j j b z j j z b j a j j j b M F ",
"S A h A j d P T L j A A z A E W R I K Y g z m j F H j b j j j d ",
"b j j z b z       h S S z N             % z A A D A j D z z v A ",
"j A j D z g   >.>.                          j M H D j j j z j A ",
"g k M d b z   >.5.5.5.>.4.,.                      v D z z b A A ",
"s j b h j j   , ..>.5.,.1.5.} #                   ~ h H A j l H ",
"A j A j j z j       o.%.>.2.4.1.1.5.1.,.>.=.        D Z j A c D ",
"j h j j j d j H x j       1.5.2.5.2.        <.        Q M j j d ",
"j z F j A k d z U             2.,.5.5.>.5.5.5.5.>.>.  T j M F j ",
"M g h j A j j                       4.5.2.    4.3.>.$.  # b j D ",
"h j s d k d                             + L : <   4.1.    g b j ",
"h j j g ! 2                             . 5.4.    >.3.  X Z j J ",
"A z b z t                             4 1.5.5.      1.  O A M b ",
"b H b                                       5.5.-.      $ z z H ",
"j j j                                         <.3.5.5.1.'   b F ",
"b j                                           >.&.    5.`   A b ",
"j j               >.5.<.|                     >.X. .{ /     F b ",
"H g             o >.5.1.>.                    -.5.5.,.      A D ",
"M h           >.5.4.1.4.<.5.                      5.3.2.[   z F ",
"j g           >.3.5.3.    5.                            @ D j c ",
"j h           2.:.4.5.O.5.  *.                        ) j A j A ",
"j l           & > <.5.>.+.  5.                        _ C A d A ",
"j g               ;.3.4.o.  5.                        ( z z j z ",
"j j                 5.4.5.5.                          ^ D b j j ",
"D z j                                               H F A j j c ",
"j j j                         >.5.<.                  p z j B F ",
"M l A 5 -                   #.@.5.>.                  g 6 F A b ",
"j M z v 1                   2.2.,.4.<.              3.    g j d ",
"j b z d k a z               3.<.3.2.1.        -.2.5.2.    M G M ",
"j d j l j M b j f         5.1.  * >.  j ;     >.5.4.3.1.]   g A ",
"j z d j j z C k M                     j =                   j z ",
"n j b j b z j j j u i y e q r w y y y H 3 8 8 r 0 7 9 w q y j g "
};
