/* XPM */
static char *result[] = {
/* columns rows colors chars-per-pixel */
"32 32 99 2 ",
"   c black",
".  c #000100",
"X  c #010001",
"o  c #010101",
"O  c #020202",
"+  c gray1",
"@  c #060606",
"#  c #090908",
"$  c #181818",
"%  c #242525",
"&  c #2B2B29",
"*  c #2D2D2E",
"=  c gray18",
"-  c #2E2F2E",
";  c #2E2E2F",
":  c #343434",
">  c #3A3738",
",  c gray29",
"<  c #4D4D4C",
"1  c gray30",
"2  c gray31",
"3  c #595A5B",
"4  c #5F605F",
"5  c #656565",
"6  c #707172",
"7  c #767777",
"8  c #797978",
"9  c #797879",
"0  c #7A7A79",
"q  c #7B7B79",
"w  c gray48",
"e  c #7B7A7A",
"r  c #7A7B7A",
"t  c #7B7B7A",
"y  c #7B7A7B",
"u  c #7A7B7B",
"i  c #7B7B7B",
"p  c #7C7B7A",
"a  c #7C7A7B",
"s  c #7C7B7B",
"d  c #7A7C7A",
"f  c #7B7C7A",
"g  c #7A7C7B",
"h  c #7B7C7B",
"j  c #7B7D7B",
"k  c #7C7C7A",
"l  c #7C7C7B",
"z  c #7D7C7B",
"x  c #7C7D7B",
"c  c #7A7A7C",
"v  c #7B7A7C",
"b  c #7A7B7C",
"n  c #7B7B7C",
"m  c #7C7A7C",
"M  c #7C7B7C",
"N  c #7C7A7D",
"B  c #7C7B7D",
"V  c #7A7C7C",
"C  c #7B7C7C",
"Z  c #7B7C7D",
"A  c #7C7C7C",
"S  c #7D7C7C",
"D  c #7C7C7D",
"F  c gray49",
"G  c gray50",
"H  c #828383",
"J  c #868585",
"K  c #8E8E8F",
"L  c #909090",
"P  c #959595",
"I  c #ADAEB0",
"U  c #B4B4B5",
"Y  c #E5E6E5",
"T  c #E5E5E6",
"R  c #F5F5F4",
"E  c #F7F8F8",
"W  c gray98",
"Q  c #FAFBFA",
"!  c #FBFBFB",
"~  c #FCFBFB",
"^  c gray99",
"/  c #FDFDFD",
"(  c #FDFEFD",
")  c #FFFEFD",
"_  c #FCFCFE",
"`  c #FDFDFF",
"'  c #FEFDFE",
"]  c #FFFDFE",
"[  c #FFFDFF",
"{  c #FDFEFE",
"}  c #FDFFFF",
"|  c #FEFEFE",
" . c #FFFEFE",
".. c #FEFFFE",
"X. c #FFFFFE",
"o. c #FEFEFF",
"O. c #FFFEFF",
"+. c #FEFFFF",
"@. c white",
/* pixels */
"i s l S t s s a n i h h s i g i l A s t i y h u h a n h k l C v ",
"f c m V n s A   q n i y y               h A A l M       s s h i ",
"s A i i p g # ..                            % 3 & .     M C M s ",
"h i h s 8 7   W                         @ o o o o | 2   l i h x ",
"y i h j e   +.                        ..+.+.+.O.[ | 6   s v C y ",
"y C s s C   @.          @.@.@.O.o.o.@.@.+.+.]       , s s i l u ",
"i A n h C              .        ..@.X. .        t M s A y t i i ",
"h t y i M   o.    +.@.) o.O.@.@.O. .              J M i h i i i ",
"y i y n i     o.@.@./     | O._                       C s n i b ",
"i y u i i   | o.      ! @. .                            y i s h ",
"e d i i 0   +.    : { | @.@. .E                         l u C i ",
"a i A D G   @.    T O.O.@.@.{ `                         H i A A ",
"i C s     X.@.  ( O.@.o.                                  s i i ",
"i h s      .O.@.@...|                                     w p u ",
"f n A     +.  o.O.Y                                         e s ",
"i h A M n   @.|                             @.@.O.+         n C ",
"i i s i n   +.@.                        o +.@.@.o.@.|       h g ",
"i h C C S   o..                           @.L @.+.| |       s n ",
"l i i y y O R                           U < 1 @.+.| /       M s ",
"i s s n M i                           W  .X +.X.O.| o.      s A ",
"s i n M n i                           ~ o.  @.@.@.o.'       u l ",
"s t i s i i i                             @.X...O.          M s ",
"i h y n s A t                                             C l A ",
"i n v t i A   @.                @.X.O.                    B n n ",
"s l i n s   ..+.X.@.        K @. .X.@.X.P               M C n n ",
"h i x i V   +...+.| |       9 ..X.@.O. .'         - 5 5 M y i i ",
"i n s s u   = * = = ;       > Q @.+.X...| ^     4 F M n y s i k ",
"h l i n t                 $ O   O.| | | } I     n n h y i Z u n ",
"y i i s n u l i i i z a                         h i i i l s l r ",
"t n u i h n V s i l n s h n y y i s i l h b A i a i i i v s h s ",
"h u h i a b u h C i h h a i h i h s s s h i k s n i i i y i i i ",
"t i y A i i v s i i s N i h M s h s i n C C n h n C M i n h l i "
};
