/* XPM */
static char *result[] = {
/* columns rows colors chars-per-pixel */
"32 32 69 1 ",
"  c gray11",
". c gray12",
"X c #202020",
"o c gray13",
"O c #232323",
"+ c #272727",
"@ c #282828",
"# c gray17",
"$ c #2D2D2D",
"% c #313131",
"& c gray20",
"* c gray22",
"= c gray23",
"- c #3C3C3C",
"; c #3F3F3F",
": c #444444",
"> c gray28",
", c gray29",
"< c #4E4E4E",
"1 c gray31",
"2 c gray32",
"3 c gray33",
"4 c #565656",
"5 c #5A5A5A",
"6 c #5D5D5D",
"7 c #606060",
"8 c #626262",
"9 c #676767",
"0 c #686868",
"q c gray43",
"w c gray45",
"e c #747474",
"r c #767676",
"t c #777777",
"y c #797979",
"u c #7C7C7C",
"i c #7E7E7E",
"p c #818181",
"a c #898989",
"s c #8B8B8B",
"d c gray55",
"f c gray57",
"g c #959595",
"h c gray61",
"j c #9D9D9D",
"k c #9F9F9F",
"l c #A5A5A5",
"z c gray68",
"x c gray69",
"c c #B2B2B2",
"v c #B4B4B4",
"b c #B9B9B9",
"n c gray74",
"m c gray",
"M c #C0C0C0",
"N c #C8C8C8",
"B c #CBCBCB",
"V c gray80",
"C c #CECECE",
"Z c gray82",
"A c gray83",
"S c #D7D7D7",
"D c #D8D8D8",
"F c gainsboro",
"G c #DDDDDD",
"H c #DFDFDF",
"J c gray88",
"K c #E4E4E4",
"L c None",
/* pixels */
"LLLLLLLLLLLLLLLLLLLLLLLLLLLLLLLL",
"Lgs    vmmmmm    :mmmmmt    mmm<",
"Ly    jKKKKH,   3KKKKKj   XzKKK5",
"L    MKKKKK+   ;JKKKKj    DKKKK5",
"L   lKKKKK>   7KKKKKd    cKKKKZ=",
"L .MKKSSS    &SSSSSh    SSDKKF  ",
"L xKKK                    @KA*  ",
"LcKKKK                    @C    ",
"LcKKKK                    .%    ",
"LcKKV$                        e5",
"LcKK#                        aK5",
"LcN%                        pKK5",
"Lc                         dKKK5",
"L    i                    @KKKK5",
"L   rK                    @KKKH2",
"L  sKK                    @KKK< ",
"L uKKK                    @KG3  ",
"LgKKKK                    @K-   ",
"LcKKKK                    O2    ",
"LcKKK;                        ;4",
"LcKK5                        5K5",
"LcJ;                        ;KK5",
"Lc1                        8KKK5",
"L    -                    @KKKK5",
"L   3G                    @KKKK5",
"L  <KK                    @KKKs ",
"L 2HKKBBw    BBBBBB    0BBVKKr  ",
"L6KKKKKf   obKKKKC%   qKKKKKi   ",
"LcKKKKd    KKKKKK    9KKKKKw    ",
"LcKKKp    nKKKKC%   iKKKKKq   %;",
"LkBBa    BBBBBB    2BBBBBw    B2",
"LLLLLLLLLLLLLLLLLLLLLLLLLLLLLLLL"
};
