/* XPM */
static char *result[] = {
/* columns rows colors chars-per-pixel */
"32 32 251 2 ",
"   c #3B377E",
".  c #4C47A2",
"X  c #4B4498",
"o  c #413982",
"O  c #6A63A8",
"+  c #A29BD7",
"@  c #A69FD8",
"#  c #9A92D2",
"$  c #6C65B6",
"%  c #4B4490",
"&  c #4A428A",
"*  c #564FAB",
"=  c #424098",
"-  c #363066",
";  c #4C48A2",
":  c #4E479D",
">  c #4A4296",
",  c #635BB6",
"<  c #877FCA",
"1  c #A49CD7",
"2  c #A39BD6",
"3  c #928AC8",
"4  c #645CA4",
"5  c #837BBA",
"6  c #A6A1D3",
"7  c #6A64BC",
"8  c #3B377D",
"9  c #4E49A4",
"0  c #5D56B3",
"q  c #625BB5",
"w  c #7A73C4",
"e  c #9C94D3",
"r  c #A49CD6",
"t  c #968ECE",
"y  c #776FBC",
"u  c #9790CF",
"i  c #B8B4E3",
"p  c #6D67BF",
"a  c #504CA6",
"s  c #766FC2",
"d  c #928ACF",
"f  c #9991D2",
"g  c #A098D5",
"h  c #9790D1",
"j  c #A099D5",
"k  c #6962BD",
"l  c #514DA6",
"z  c #7F78C6",
"x  c #9E96D4",
"c  c #6760BC",
"v  c #514CA6",
"b  c #514DA7",
"n  c #817AC7",
"m  c #A69ED8",
"M  c #A49DD7",
"N  c #A49BD6",
"B  c #524EA7",
"V  c #8B85CD",
"C  c #BAB6E4",
"Z  c #B1ABDE",
"A  c #A39AD6",
"S  c #A8A2D9",
"D  c #B1ACDE",
"F  c #AAA3DA",
"G  c #A39CD6",
"H  c #9F97D4",
"J  c #4F4BA6",
"K  c #716BC2",
"L  c #A19DD9",
"P  c #B8B4E2",
"I  c #A29AD5",
"U  c #B0AADD",
"Y  c #BBB7E4",
"T  c #BEBBE6",
"R  c #BBB6E4",
"E  c #6860BC",
"W  c #423B8B",
"Q  c #352F62",
"!  c #3A367C",
"~  c #43419A",
"^  c #5651AE",
"/  c #8F8AD1",
"(  c #C5C2EA",
")  c #A29AD6",
"_  c #A59DD7",
"`  c #AEA7DC",
"'  c #B2ADDF",
"]  c #B2AEDE",
"[  c #5A539D",
"{  c #3C347C",
"}  c #352F60",
"|  c #393272",
" . c #3C3683",
".. c #433C8A",
"X. c #5B559B",
"o. c #8C86BE",
"O. c #ACA5DB",
"+. c #A6A0D6",
"@. c #4F478B",
"#. c #3A3278",
"$. c #393578",
"%. c #454094",
"&. c #474197",
"*. c #4B4598",
"=. c #7871BB",
"-. c #9E96D3",
";. c #5D56A8",
":. c #3E3680",
">. c #444199",
",. c #7571BE",
"<. c #9F9AD6",
"1. c #6760BA",
"2. c #423D90",
"3. c #353064",
"4. c #3A367D",
"5. c #4A479F",
"6. c #7470BE",
"7. c #A39ED8",
"8. c #ABA4DB",
"9. c #49469D",
"0. c #7C77BF",
"q. c #AAA3D9",
"w. c #39367C",
"e. c #403F95",
"r. c #5D59A8",
"t. c #8B85C6",
"y. c #46439B",
"u. c #5F5AAD",
"i. c #8780C3",
"p. c #A098D4",
"a. c #6861BC",
"s. c #7F77C6",
"d. c #9890D1",
"f. c #948CD0",
"g. c #A69ED7",
"h. c #8881CA",
"j. c #938BCF",
"k. c #A199D5",
"l. c #8A82CB",
"z. c #625BB9",
"x. c #504BA6",
"c. c #6F68BF",
"v. c #756EC2",
"b. c #716AC1",
"n. c #958DD0",
"m. c #867EC9",
"M. c #8780CA",
"N. c #615AB9",
"B. c #6E67BF",
"V. c #837BC8",
"C. c #9088CE",
"Z. c #A39BD7",
"A. c #A59DD8",
"S. c #665EBB",
"D. c #5B55B6",
"F. c #434198",
"G. c #4E4AA5",
"H. c #5E57B8",
"J. c #5F58B9",
"K. c #726BC1",
"L. c #7770C3",
"P. c #6059B9",
"I. c #615ABA",
"U. c #5C55B8",
"Y. c #6961B7",
"T. c #7C74B9",
"R. c #877FC9",
"E. c #8780CB",
"W. c #847DC5",
"Q. c #7C74B6",
"!. c #7971B0",
"~. c #857DC5",
"^. c #827AC8",
"/. c #6961BD",
"(. c #5D56B8",
"). c #5C55B7",
"_. c #434199",
"`. c #3A377D",
"'. c #47449F",
"]. c #504BA9",
"[. c #504BAA",
"{. c #504CAA",
"}. c #524EAB",
"|. c #534FAB",
" X c #4F4BA9",
".X c #4D479E",
"XX c #4A4390",
"oX c #5551AA",
"OX c #5652AD",
"+X c #5651AB",
"@X c #524B9D",
"#X c #473F88",
"$X c #443C81",
"%X c #484089",
"&X c #5550AA",
"*X c #514DAA",
"=X c #413F96",
"-X c #37336F",
";X c #3B387F",
":X c #3C3981",
">X c #3D3981",
",X c #3B377B",
"<X c #393373",
"1X c #3C3880",
"2X c #3C3881",
"3X c #3C377E",
"4X c #3A3474",
"5X c #38316E",
"6X c #37306D",
"7X c #342E5C",
"8X c #342E5E",
"9X c #342E5D",
"0X c #342E5B",
"qX c #332D5A",
"wX c #352E5F",
"eX c #363169",
"rX c #36316A",
"tX c #363067",
"yX c #363064",
"uX c #362F63",
"iX c #352F61",
"pX c #37306C",
"aX c #3B3680",
"sX c #3C3988",
"dX c #403C8F",
"fX c #454298",
"gX c #464298",
"hX c #423E8E",
"jX c #3E3882",
"kX c #454196",
"lX c #444195",
"zX c #3C357D",
"xX c #3A3276",
"cX c #393270",
"vX c #3E3781",
"bX c #3F3884",
"nX c #4A4397",
"mX c #6059B8",
"MX c #6963BC",
"NX c #6D67BE",
"BX c #6D67BD",
"VX c #6C67BD",
"CX c #5E58AA",
"ZX c #4A438F",
"AX c #645DB7",
"SX c #6761BA",
"DX c #5E58B7",
"FX c #5751B1",
"GX c #403884",
"HX c #3A347C",
"JX c white",
/* pixels */
"  . X o O + @ @ @ @ @ @ @ @ @ @ @ @ @ @ @ @ @ @ @ # $ % & * = - ",
"  ; : > , < 1 2 2 2 2 2 2 2 2 2 2 2 2 2 2 2 2 2 1 3 4 5 6 7 = - ",
"8 9 0 q w e 2 2 2 2 2 2 2 2 2 2 2 2 2 2 2 2 2 2 r t y u i p = - ",
"8 a s d f 2 2 2 2 2 2 2 2 2 2 2 2 2 2 2 2 2 2 2 2 g h j @ k = - ",
"8 l z 2 2 2 2 2 2 2 2 2 2 2 2 2 2 2 2 2 2 2 2 2 2 2 2 2 x c = - ",
"8 l z 2 2 2 2 2 2 2 2 2 2 2 2 2 2 2 2 2 2 2 2 2 2 2 2 2 x c = - ",
"8 l z 2 2 2 2 2 2 2 2 2 2 2 2 2 2 2 2 2 2 2 2 2 2 2 2 2 x c = - ",
"8 v z 2 2 2 2 2 2 2 2 2 2 2 2 2 2 2 2 2 2 2 2 2 2 2 2 2 x c = - ",
"8 b n m M 2 2 2 2 2 2 2 2 2 2 2 2 2 2 2 2 2 2 r M N 2 2 x c = - ",
"8 B V C Z A 2 2 2 2 2 2 2 2 2 2 2 2 2 2 2 2 2 S D F G 1 H c = - ",
"8 J K L P I 2 2 2 2 2 2 2 2 2 2 2 2 2 2 2 2 2 m U Y T R G E W Q ",
"! ~ ^ / ( Z ) 2 2 2 2 2 2 2 2 2 2 2 2 2 2 2 2 2 _ ` Z ' ] [ { } ",
"|  ...X.o.O.2 2 2 2 2 2 2 2 2 2 2 2 2 2 2 2 2 2 2 2 2 _ +.@.#.} ",
"$.%.&.*.=._ 2 2 2 2 2 2 2 2 2 2 2 2 2 2 2 2 2 2 2 2 2 2 -.;.:.} ",
"! >.b ,.<.2 2 2 2 2 2 2 2 2 2 2 2 2 2 2 2 2 2 2 2 2 2 2 x 1.2.3.",
"4.5.6.7.8.2 2 2 2 2 2 2 2 2 2 2 2 2 2 2 2 2 2 2 2 2 2 2 x c = - ",
"! 9.0.q.G 2 2 2 2 2 2 2 2 2 2 2 2 2 2 2 2 2 2 2 2 2 2 2 x c = - ",
"w.e.r.t.2 2 2 2 2 2 2 2 2 2 2 2 2 2 2 2 2 2 2 2 2 2 2 2 x c = - ",
"! y.u.i.r 2 2 2 2 2 2 2 2 2 2 2 2 2 2 2 2 2 2 2 2 2 2 2 x c = - ",
"8 l z 2 2 2 2 2 2 2 2 2 2 2 2 2 2 2 2 2 2 2 2 2 2 2 2 2 x c = - ",
"8 l z 2 2 2 2 2 2 2 2 2 2 2 2 2 2 2 2 2 2 2 2 2 2 2 2 2 x c = - ",
"8 l z 2 2 2 2 2 2 2 2 2 2 2 2 2 2 2 2 2 2 2 2 2 2 2 2 2 x c = - ",
"8 l z r r 2 2 2 2 r _ 1 2 2 2 2 2 2 2 2 2 2 2 2 2 2 2 2 p.a.= - ",
"8 l s.d.f._ r _ g.d.h.j.) _ 1 2 2 2 2 2 2 2 2 2 2 2 2 k.l.z.= - ",
"8 x.c.v.b.n.d.m.M.v.N.B.V.< C.Z._ _ _ _ _ _ A.A.A._ g h.S.D.F.- ",
"8 G.H.J.J.K.L.P.I.J.U.H.I.I.Y.T.R.E.E.E.E.W.Q.!.Q.~.^./.(.)._.- ",
"`.'.].[.{.}.|. X[.[.{.[.[. X.XXXoXOXOXOX+X@X#X$X%X@X&X*X[.].=X- ",
"-X;X:X>X>X:X:X>X>X>X>X>X>X:X,X<X1X2X2X2X3X4X5X6X5X4X3X:X>X:X`.Q ",
"7X8X8X8X8X8X8X8X8X8X8X8X8X8X9X7X8X8X8X8X9X0X0X0X0X0X9X8X8X8X8XqX",
"wX- eXeXrXrXrXrXrXrXrXrXrXeXtXyXeXrXrXrXrXrXrXrXrXrXrXrXeXuXiXqX",
"pXaXsXdXfXgXgXgXgXgXgXgXgXgXhXjXkXfXgXgXgXgXgXgXgXgXgXfXlXzXxXwX",
"cXvXbXnXmXMXNXBXBXBXBXBXBXVXCXZXAXSXVXBXBXBXBXBXBXNX7 DXFXGXHXiX"
};
