/* XPM */
static char *result[] = {
/* columns rows colors chars-per-pixel */
"32 32 108 2 ",
"   c #3A284A",
".  c #382849",
"X  c #402F52",
"o  c #4C395F",
"O  c #56416A",
"+  c #55406A",
"@  c #523D66",
"#  c #443156",
"$  c #3B294C",
"%  c #392749",
"&  c #362547",
"*  c #3C2B4E",
"=  c #4D3A61",
"-  c #57416C",
";  c #57406D",
":  c #563F6B",
">  c #563F6C",
",  c #57406C",
"<  c #543F68",
"1  c #433054",
"2  c #352444",
"3  c #4B375D",
"4  c #533D69",
"5  c #4D3862",
"6  c #4E3864",
"7  c #4F3864",
"8  c #4E3863",
"9  c #4F3964",
"0  c #58416E",
"q  c #513C65",
"w  c #342344",
"e  c #4E3A61",
"r  c #56406B",
"t  c #523C68",
"y  c #4D3762",
"u  c #4E3964",
"i  c #57416D",
"p  c #533E67",
"a  c #412F53",
"s  c #55406B",
"d  c #4D3763",
"f  c #503A65",
"g  c #533D66",
"h  c #412E52",
"j  c #4E3963",
"k  c #58416D",
"l  c #4E3961",
"z  c #4D3961",
"x  c #553F6A",
"c  c #352446",
"v  c #4E3B62",
"b  c #382648",
"n  c #4F3B62",
"m  c #392849",
"M  c #382749",
"N  c #513B67",
"B  c #342445",
"V  c #4F3A64",
"C  c #5C4571",
"Z  c #59416E",
"A  c #4C3661",
"S  c #4C3761",
"D  c #5A436F",
"F  c #533D67",
"G  c #402E52",
"H  c #3F2C50",
"J  c #5B4570",
"K  c #5A4370",
"L  c #543E6A",
"P  c #553E6A",
"I  c #543F6A",
"U  c #553F6B",
"Y  c #543F69",
"T  c #453157",
"R  c #39284A",
"E  c #382649",
"W  c #423055",
"Q  c #503C63",
"!  c #58426C",
"~  c #543E68",
"^  c #543E69",
"/  c #553F69",
"(  c #554069",
")  c #463359",
"_  c #3C2A4D",
"`  c #39274A",
"'  c #3F2D51",
"]  c #48355A",
"[  c #47345A",
"{  c #473359",
"}  c #48345A",
"|  c #48355B",
" . c #49355B",
".. c #49365B",
"X. c #47335A",
"o. c #38284A",
"O. c #3B2A4C",
"+. c #322143",
"@. c #322142",
"#. c #312040",
"$. c #302040",
"%. c #332243",
"&. c #352445",
"*. c #312141",
"=. c #332244",
"-. c #362647",
";. c #3A294B",
":. c white",
/* pixels */
"  . X o O + + + + + + + + + + + + + + + + + + + + + + + @ # $ % ",
"& * = - ; : : : : : : : : : : : : : : : : : : : : : : > , < 1 % ",
"2 3 + 4 5 6 7 7 7 7 7 7 7 7 7 7 7 7 7 7 7 7 7 7 7 7 6 8 9 0 q X ",
"w e r t y 9 9 9 9 9 9 9 9 9 9 9 9 9 9 9 9 9 9 9 9 9 9 8 u i p a ",
"w e s t d f f f f f f f f f f f f f f f f f f f f f f 9 9 ; g h ",
"w e + t 8 f 9 9 9 9 9 9 9 9 9 9 9 9 9 9 9 9 9 9 9 9 f j 9 k p h ",
"w e s t 8 f 9 9 f f f f f f f f f f f f f f f f f 9 f j 9 k p h ",
"w l s t 8 f 9 9 f f f f f f f f f f f f f f f f f 9 f j 9 k p h ",
"w z x t 8 f 9 9 f f f f f f f f f f f f f f f f f 9 f j 9 k p h ",
"w l + t 8 f 9 9 f f f f f f f f f f f f f f f f f 9 f j 9 k p h ",
"w e + t 8 f 9 9 f f f f f f f f f f f f f f f f f 9 f j 9 k p h ",
"w e + t 8 f 9 9 f f f f f f f f f f f f f f f f f 9 f j 9 k p h ",
"c e s t 8 f 9 9 f f f f f f f f f f f f f f f f f 9 f j 9 k p h ",
"& v s t 8 f 9 9 f f f f f f f f f f f f f f f f f 9 f j 9 k p h ",
"b n s t 8 f 9 9 f f f f f f f f f f f f f f f f f 9 f j 9 k p h ",
"m n s t 8 f 9 9 f f f f f f f f f f f f f f f f f 9 f j 9 k p h ",
"M n s t 8 f 9 9 f f f f f f f f f f f f f f f f f 9 f j 9 k p h ",
"& v s t 8 f 9 9 f f f f f f f f f f f f f f f f f 9 f j 9 k p h ",
"w e s t 8 f 9 9 f f f f f f f f f f f f f f f f f 9 f j 9 k p h ",
"w e + t 8 f 9 9 f f f f f f f f f f f f f f f f f 9 f j 9 k p h ",
"w = s t 8 f 9 9 f f f f f f f f f f f f f f f f f 9 f j 9 k p h ",
"w = s t 8 f 9 9 f f f f f f f f f f f f f f f f f 9 f j 9 k p h ",
"w e + t 8 f 9 9 f f f f f f f f f f f f f f f f f 9 f j 9 k p h ",
"w e s t 8 f 9 9 f f f f f f f f f f f f f f f f f 9 f j 9 k p h ",
"w l x t 8 f 9 9 9 9 9 9 9 9 9 9 9 9 9 9 9 9 9 9 9 9 f j 9 k p h ",
"w z x N y f f 9 9 9 9 9 9 9 9 9 9 9 9 9 9 9 9 9 9 9 f j 9 ; p h ",
"B e , t y V f 9 9 9 9 9 9 9 9 9 9 9 9 9 9 9 9 9 9 9 f 8 j i p a ",
"c z C Z A S 5 y y y y y y 5 5 5 5 5 5 5 y y y y y y 5 S j D F G ",
"& H q J K L P x L x x P x x x I x x x I x P x x P x x U : Y T   ",
"R E W Q ! ~ ~ ^ ^ ^ ^ ^ ^ Y Y ^ / ( / ^ ^ ^ ^ ^ ^ ^ ^ / @ ) _ % ",
"_ ` M ' ] [ { { { { { [ } |  . ..... .} [ X.{ { { { { [ # o.R $ ",
"_ O.. B +.@.#.$.$.$.#.@.+.%.w &.c w %.@.+.*.$.$.$.$.*.@.=.-.;._ "
};
