/* XPM */
static char *result[] = {
/* columns rows colors chars-per-pixel */
"32 32 98 2 ",
"   c #4E4C5A",
".  c #4E4C5B",
"X  c #4F4C5B",
"o  c #4F4D5B",
"O  c #4F4D5C",
"+  c #504E5C",
"@  c #514F5D",
"#  c #52505E",
"$  c #53515F",
"%  c #535260",
"&  c #545260",
"*  c #545360",
"=  c #555361",
"-  c #555461",
";  c #565461",
":  c #565462",
">  c #565562",
",  c #575563",
"<  c #575663",
"1  c #5A5965",
"2  c #5A5966",
"3  c #5C5B67",
"4  c #636370",
"5  c #636371",
"6  c #646470",
"7  c #656471",
"8  c #656571",
"9  c #666572",
"0  c #666672",
"q  c #666673",
"w  c #676673",
"e  c #676773",
"r  c #676774",
"t  c #676873",
"y  c #676874",
"u  c #686873",
"i  c #686874",
"p  c #696874",
"a  c #686974",
"s  c #696974",
"d  c #696875",
"f  c #696975",
"g  c #696A75",
"h  c #6A6B76",
"j  c #6B6B76",
"k  c #6B6B77",
"l  c #6B6C76",
"z  c #6C6C77",
"x  c #6C6D77",
"c  c #6E6F78",
"v  c #6E6E79",
"b  c #70707A",
"n  c #71727B",
"m  c #7C7D84",
"M  c #7D7D84",
"N  c #7D7E84",
"B  c #7E7F85",
"V  c #7F7F85",
"C  c #7F7F86",
"Z  c #7F8087",
"A  c #7F8187",
"S  c #7F8188",
"D  c #808187",
"F  c #808287",
"G  c #828387",
"H  c #808188",
"J  c #818188",
"K  c #808288",
"L  c #818288",
"P  c #818289",
"I  c #828388",
"U  c #838388",
"Y  c #828389",
"T  c #838489",
"R  c #83848A",
"E  c #848489",
"W  c #848589",
"Q  c #868589",
"!  c #84858A",
"~  c #85868B",
"^  c #959090",
"/  c #959190",
"(  c #959191",
")  c #969190",
"_  c #979191",
"`  c #979291",
"'  c #999392",
"]  c #9A9392",
"[  c #9A9492",
"{  c #9B9492",
"}  c #9B9592",
"|  c #9B9593",
" . c #9C9592",
".. c #9C9692",
"X. c #9C9794",
"o. c #9D9794",
"O. c #9D9795",
"+. c #9E9894",
/* pixels */
"# @ + + O O O O O O O O O O O O + + + + + + O O O O + + @ # # # ",
"# * t p V B B B B B B B B B B B B B B B B B B B B C u e & # # # ",
"+ % y f K H H H H H H H H H H H H H H H H H H H H K i r $ + @ @ ",
"f z Y U [ ] ] ] ] ] ] ] ] ] ] ] ] ] ] ] ] ] ] ] ] [ I P l a : + ",
"i j L I } [ [ [ [ [  .} } } } } } } } } } } } } } ..G Y z g > + ",
"R Q { { [ | | | | } F K K K K K K K K K K K K K K L L Y z g > o ",
"Y E { [ [ [ } } } ..D Y Y Y Y Y Y Y Y Y Y Y Y Y Y Y L Y z g > o ",
"O.[ [ | [ ] Z L L L L Y Y Y Y Y Y Y Y Y Y Y Y Y Y Y Y Y z g > . ",
"O.| | [ [ [ Z Y Y Y Y Y Y Y Y Y Y Y Y Y Y Y Y Y Y Y Y Y z g > o ",
"O.[ [ _ Z L L Y Y Y Y Y Y Y Y Y Y Y Y Y Y Y Y Y Y Y Y Y z g > o ",
"O.' ` ^ Z Y Y Y Y Y Y Y Y Y Y Y Y Y Y Y Y Y Y Y Y Y Y Y z g > o ",
"X./ Z L Y Y Y Y Y Y Y Y Y Y Y Y Y Y Y Y Y Y Y Y Y Y Y L z g : . ",
"o.( S Y Y Y Y Y Y Y Y Y Y Y Y Y Y Y Y Y Y Y Y Y Y Y Y L n b < o ",
"o.( S Y Y Y Y Y Y Y Y Y Y Y Y Y Y Y Y Y Y Y Y Y Y Y Y L L T 3 o ",
"o.( S Y Y Y Y Y Y Y Y Y Y Y Y Y Y Y Y Y Y Y Y Y Y Y Y Y Y ! 3 O ",
"o.( S Y Y Y Y Y Y Y Y Y Y Y Y Y Y Y Y Y Y Y Y Y Y Y Y Y Y ! 3 O ",
"o.( S Y Y Y Y Y Y Y Y Y Y Y Y Y Y Y Y Y Y Y Y Y Y Y Y Y Y ! 3 O ",
"o.( S Y Y Y Y Y Y Y Y Y Y Y Y Y Y Y Y Y Y Y Y Y Y Y Y Y Y ! 3 o ",
"o.( S Y Y Y Y Y Y Y Y Y Y Y Y Y Y Y Y Y Y Y Y Y Y Y Y Y Y ! 3 + ",
"o.( S Y Y Y Y Y Y Y Y Y Y Y Y Y Y Y Y Y Y Y Y Y Y Y Y L Y ! 3 + ",
"o.( S Y Y Y Y Y Y Y Y Y Y Y Y Y Y Y Y Y Y Y Y Y Y Y Y Y c x ,   ",
"+.) A Y Y Y Y Y Y Y Y Y Y Y Y Y Y Y Y Y Y Y Y Y Y L T R z g > . ",
"R L L Y Y Y Y Y Y Y Y Y Y Y Y Y Y Y Y Y Y Y Y Y Y Y s i i a > o ",
"~ T L Y Y Y Y Y Y Y Y Y Y Y Y Y Y Y Y Y Y Y L P T ! s f i f > o ",
"q g Y Y Y Y Y Y Y Y Y Y Y Y Y Y Y Y Y Y Y Y L T 5 9 i f f f > @ ",
"k v W T T T T T T R L L Y Y Y Y Y Y Y Y Y Y L T r f f i f h > + ",
"X $ 0 9 9 9 9 9 9 4 J L L L L L L Y Y Y L L L I r i i f # X @ @ ",
"# = a i i i i f f 0 H L L L L L L Y Y Y L L L I q i i d & # # # ",
"# @ o o o o f i i i 0 0 0 0 0 8 D L L L L L 6 0 i f + o @ # # # ",
"# # # # # @ w 0 0 0 0 0 0 0 0 8 m N N N M M 7 0 0 w # # # # # # ",
"# @ # # # # + + + + + + + + + + o o o o o o + + + + @ # # # @ # ",
"# # : ; 1 2 2 2 2 2 2 2 2 2 2 2 2 2 2 2 2 2 2 2 2 1 - : : : # # "
};
